<?xml version="1.0" standalone="no"?>
<!DOCTYPE svg PUBLIC "-//W3C//DTD SVG 20010904//EN"
 "http://www.w3.org/TR/2001/REC-SVG-20010904/DTD/svg10.dtd">
<svg version="1.0" xmlns="http://www.w3.org/2000/svg"
 width="1600.000000pt" height="1066.000000pt" viewBox="0 0 1600.000000 1066.000000"
 preserveAspectRatio="xMidYMid meet">

<g transform="translate(0.000000,1066.000000) scale(0.100000,-0.100000)"
fill="#000000" stroke="none">
<path d="M0 5330 l0 -5330 8000 0 8000 0 0 2346 c0 2071 -2 2347 -15 2360 -19
20 -19 43 0 50 13 5 15 343 15 2955 l0 2949 -8000 0 -8000 0 0 -5330z m7410
4306 c0 -8 -6 -16 -13 -19 -8 -3 -13 3 -13 14 0 11 6 19 13 19 7 0 13 -6 13
-14z m6 -41 c-3 -8 0 -15 7 -15 9 0 12 -17 11 -57 -1 -32 -3 -60 -4 -63 -1 -3
-2 -9 -1 -13 1 -4 -6 -22 -15 -40 l-15 -32 20 25 c11 14 21 35 21 47 0 24 24
53 43 53 13 0 52 40 39 40 -4 1 4 7 18 15 16 8 29 10 36 4 8 -6 14 -2 19 13 8
22 8 22 12 -5 3 -17 -2 -33 -12 -44 -10 -9 -15 -26 -12 -39 2 -13 0 -21 -4
-18 -5 3 -9 -2 -9 -11 0 -9 -12 -27 -27 -40 -16 -13 -23 -25 -16 -25 7 0 17 8
22 18 6 9 11 13 11 7 0 -5 5 -3 10 5 9 13 11 13 20 0 5 -8 7 -26 4 -40 -5 -21
-3 -20 17 10 13 19 22 41 20 49 -2 9 4 12 18 8 11 -2 22 0 25 7 3 6 3 1 0 -11
-4 -17 -2 -21 10 -17 8 3 17 12 20 20 8 21 26 17 26 -7 0 -11 -4 -17 -10 -14
-5 3 -10 1 -10 -4 0 -6 -7 -11 -16 -11 -8 0 -13 -4 -9 -9 3 -5 1 -12 -5 -16
-5 -3 -10 -12 -10 -18 0 -8 3 -7 9 2 14 22 29 4 26 -31 -4 -46 -4 -46 -20 -18
-16 28 -21 19 -5 -10 6 -11 18 -17 30 -15 16 3 20 -2 21 -23 0 -15 3 -21 6
-14 4 11 33 18 33 8 0 -2 3 -13 7 -23 6 -16 5 -16 -10 -4 -11 9 -17 10 -17 2
0 -6 4 -11 8 -11 5 0 14 -10 20 -22 6 -13 11 -17 11 -10 2 22 21 13 21 -10 0
-13 5 -30 10 -38 8 -12 10 -10 11 10 1 14 1 42 -1 64 -3 54 21 43 38 -17 12
-43 31 -64 32 -34 1 6 7 -1 15 -18 10 -19 13 -22 9 -7 -4 16 -1 22 12 22 12 0
14 3 6 13 -5 6 -6 21 -2 32 6 17 7 17 13 -7 4 -15 4 -33 1 -41 -3 -8 -1 -18 5
-21 7 -5 7 -15 1 -32 -6 -14 -10 -33 -9 -42 0 -14 2 -13 8 3 8 19 8 19 15 -2
8 -24 26 -31 26 -10 0 6 7 -1 15 -17 8 -15 15 -35 15 -43 0 -8 8 -13 18 -11
12 2 18 -5 20 -26 3 -22 6 -26 13 -15 6 10 9 3 9 -23 0 -21 5 -38 10 -38 6 0
10 -16 10 -35 0 -19 5 -35 11 -35 16 0 2 -85 -21 -133 -16 -32 -16 -39 -4 -44
16 -6 19 -33 4 -33 -5 0 -10 4 -10 9 0 5 -9 7 -20 4 -23 -6 -27 -23 -5 -23 9
0 15 -10 16 -22 0 -13 2 -31 4 -41 8 -41 -14 -72 -70 -96 -30 -13 -57 -32 -60
-42 -4 -10 -13 -19 -21 -19 -8 0 -12 -5 -9 -11 4 -6 13 -8 21 -5 7 3 16 1 19
-4 4 -6 -13 -10 -39 -10 l-46 0 1 -57 c1 -44 3 -52 9 -33 4 14 5 35 3 48 -3
13 0 22 7 22 10 0 11 -15 6 -57 -6 -55 -6 -57 9 -35 11 15 25 22 45 20 22 -2
37 8 70 45 23 26 46 47 50 47 4 0 6 -20 4 -45 -2 -28 0 -44 6 -40 6 3 10 25
10 48 0 23 9 62 20 86 23 50 26 71 8 53 -7 -7 -18 -12 -26 -12 -18 0 83 85
125 105 101 49 162 -127 97 -285 -14 -35 -32 -96 -39 -134 -17 -86 -46 -173
-77 -227 -25 -45 -83 -81 -115 -73 -15 4 -22 0 -26 -18 -25 -104 -39 -154 -47
-162 -7 -7 -10 -5 -11 5 0 7 -5 3 -12 -11 l-11 -25 -4 28 c-5 39 -22 33 -22
-8 0 -23 -4 -33 -12 -30 -17 7 -42 -46 -27 -56 7 -4 8 -9 1 -13 -6 -3 -13 0
-16 6 -3 9 -8 8 -16 -5 -11 -18 -13 -18 -31 -1 -12 11 -19 13 -19 5 0 -7 -5
-9 -12 -5 -7 4 -8 3 -4 -4 4 -6 0 -24 -9 -39 l-15 -28 6 29 c5 20 4 27 -5 22
-6 -4 -11 -13 -11 -20 0 -17 -35 -48 -43 -39 -4 3 -7 -4 -7 -17 0 -23 0 -23
-14 -4 -14 18 -15 18 -21 1 -5 -13 -11 -15 -20 -7 -14 12 -25 -14 -25 -61 0
-34 -58 -98 -71 -78 -7 11 -9 11 -9 -2 0 -9 8 -20 17 -23 12 -5 14 -9 5 -18
-7 -7 -12 -21 -13 -32 0 -12 -3 -15 -6 -8 -9 23 -41 13 -48 -15 -8 -34 -24
-55 -37 -47 -5 3 -6 -6 -3 -23 l6 -28 -17 30 c-10 17 -19 25 -22 17 -2 -6 -9
-9 -14 -6 -6 4 -9 3 -5 -2 3 -5 -1 -18 -10 -29 -13 -19 -14 -18 -8 10 6 27 5
28 -6 10 -17 -28 -16 -28 -29 -20 -9 6 -9 10 1 17 10 7 9 8 -5 4 -10 -4 -24
-2 -30 2 -18 14 -48 23 -41 12 3 -6 -2 -10 -12 -10 -15 0 -16 -2 -3 -11 12 -9
11 -10 -7 -6 -13 3 -23 1 -23 -5 0 -5 -5 -6 -11 -2 -6 3 -16 0 -21 -7 -7 -10
-8 -1 -4 26 4 27 2 35 -4 25 -5 -8 -10 -26 -10 -39 0 -19 -3 -22 -12 -13 -15
15 -39 -4 -31 -25 4 -11 2 -14 -5 -9 -7 4 -12 13 -12 20 0 8 -9 16 -20 19 -24
6 -25 -1 -3 -25 15 -17 15 -18 0 -13 -9 4 -22 20 -29 36 -7 16 -18 31 -25 34
-17 6 -16 1 8 -48 l20 -42 -20 25 c-12 14 -24 35 -27 47 -3 13 -10 20 -15 17
-5 -3 -14 6 -21 21 -6 14 -21 28 -34 31 -14 4 -24 16 -28 35 -3 17 -10 28 -16
24 -6 -3 -7 0 -4 9 7 19 -34 78 -48 69 -8 -4 -9 0 -4 13 16 38 18 54 7 54 -6
0 -10 -3 -10 -7 3 -17 -1 -24 -11 -18 -6 4 -6 15 0 31 7 17 7 23 0 19 -5 -3
-9 2 -8 12 0 10 0 27 -2 38 -2 15 -4 13 -10 -10 l-8 -30 -1 28 c-1 24 -4 27
-22 22 -19 -6 -20 -4 -14 29 5 24 3 36 -4 36 -6 0 -11 -7 -11 -16 0 -12 -6
-10 -21 10 -11 14 -26 26 -33 26 -6 0 -18 16 -25 36 -9 24 -18 34 -27 30 -14
-5 -18 8 -14 52 1 12 -3 22 -9 22 -6 0 -8 -7 -5 -15 4 -8 1 -15 -5 -15 -6 0
-11 9 -11 20 0 11 -5 20 -11 20 -6 0 -9 6 -6 14 4 9 0 12 -13 9 -30 -8 -32 8
-46 365 -4 105 -5 192 -2 192 3 0 12 -24 19 -52 24 -104 80 -151 190 -162 l54
-6 -55 13 c-98 23 -146 74 -175 182 -18 71 -19 107 -1 50 13 -39 13 -37 12 47
-1 59 3 91 12 100 11 11 11 8 3 -14 -13 -36 2 -37 31 -3 12 14 29 25 38 25 9
0 16 8 16 20 0 15 -5 18 -18 14 -31 -9 -20 6 15 21 l32 14 -30 0 c-16 0 -48
-6 -70 -14 -22 -8 -50 -15 -62 -15 -12 0 -24 -8 -26 -17 -3 -10 -5 0 -6 23 -2
78 -13 136 -23 122 -7 -10 -8 -9 -4 4 3 10 -1 21 -10 26 -20 11 -43 141 -31
174 4 13 6 35 3 51 -3 15 -2 27 3 27 5 0 7 10 3 22 -3 13 -1 19 5 15 6 -4 10
12 12 40 2 52 15 75 38 66 13 -5 15 -2 10 11 -8 20 10 59 22 51 5 -2 11 4 14
15 7 29 31 25 43 -7 10 -27 11 -26 18 21 4 27 12 54 17 60 5 6 19 26 32 45 26
41 44 49 50 24 3 -12 12 -1 29 37 25 53 58 95 58 72 0 -6 -4 -14 -10 -17 -5
-3 -10 -14 -10 -23 0 -13 4 -12 19 7 10 13 19 34 19 47 0 23 25 58 35 48 3 -3
1 -20 -4 -37 -13 -46 -10 -56 6 -25 8 15 24 30 36 33 14 5 19 13 16 26 -3 10
-1 17 4 13 5 -3 9 4 9 15 0 20 67 97 77 87 3 -3 0 -12 -7 -20 -10 -13 -9 -19
5 -32 9 -10 13 -23 9 -33 -3 -9 -6 -22 -5 -28 3 -37 5 -42 13 -37 5 4 7 12 4
19 -3 8 2 19 11 26 8 8 19 22 24 34 8 16 8 13 5 -12 -4 -25 -2 -31 9 -26 8 3
15 9 15 14 0 5 11 14 25 19 14 5 25 14 25 19 0 6 -7 8 -15 5 -8 -4 -15 -1 -15
5 0 6 2 11 4 11 2 0 12 3 21 7 15 5 17 1 11 -38 -3 -24 -3 -37 1 -29 10 25 26
65 28 70 1 3 5 13 10 24 8 17 8 17 18 0 7 -13 6 -20 -7 -29 -9 -7 -16 -18 -16
-25 0 -9 6 -8 19 4 15 13 20 14 24 4 4 -11 7 -10 18 1 9 9 9 11 2 7 -18 -10
-16 9 2 24 13 10 15 9 15 -9 0 -13 4 -19 10 -16 6 4 10 14 9 23 -3 34 2 36 16
7 9 -20 14 -24 14 -12 1 16 41 65 41 50 0 -4 5 -2 12 5 17 17 31 15 24 -3z
m-347 -27 c-7 -13 -14 -18 -16 -11 -3 7 2 19 9 27 18 20 22 12 7 -16z m203 0
c-7 -7 -12 -8 -12 -2 0 14 12 26 19 19 2 -3 -1 -11 -7 -17z m208 -8 c0 -5 -5
-10 -11 -10 -5 0 -7 5 -4 10 3 6 8 10 11 10 2 0 4 -4 4 -10z m4 -44 c-21 -15
-30 -14 -19 3 3 6 14 11 23 11 13 0 13 -2 -4 -14z m192 -31 c-23 -17 -36 -19
-36 -6 0 11 18 19 40 20 11 0 10 -3 -4 -14z m106 -186 c19 -15 36 -85 17 -74
-4 3 -9 2 -12 -2 -2 -5 -2 -2 0 5 1 7 -4 27 -13 44 -12 24 -18 28 -25 17 -6
-9 -9 1 -8 31 0 40 1 42 10 20 5 -14 19 -32 31 -41z m-1181 -50 c-9 -23 -10
-23 -10 -2 -1 12 2 30 6 40 6 15 8 15 11 2 1 -8 -2 -26 -7 -40z m1293 -34 c3
-8 1 -15 -4 -15 -6 0 -10 7 -10 15 0 8 2 15 4 15 2 0 6 -7 10 -15z m143 -117
c-3 -8 -6 -5 -6 6 -1 11 2 17 5 13 3 -3 4 -12 1 -19z m16 -33 c4 -8 2 -17 -3
-20 -6 -4 -10 3 -10 14 0 25 6 27 13 6z m-1972 -13 c15 -6 29 -8 32 -6 7 7
134 -52 154 -72 16 -16 16 -16 -4 -10 -13 4 -24 2 -29 -5 -4 -7 -3 -10 2 -6
11 6 104 -59 104 -73 0 -6 -11 -3 -25 6 -14 9 -25 21 -25 26 0 5 -4 7 -9 4 -5
-3 -26 6 -47 20 -44 30 -88 49 -79 34 3 -6 12 -10 18 -10 7 0 12 -15 12 -35 1
-31 -1 -34 -24 -28 -22 5 -21 3 10 -27 23 -22 27 -31 14 -25 -11 4 -28 7 -37
7 -10 0 -20 3 -23 9 -10 15 -25 10 -19 -6 8 -19 5 -19 -46 4 -33 14 -37 19
-22 23 11 3 26 1 35 -4 13 -7 15 -5 10 8 -4 10 0 22 11 29 15 11 13 16 -19 44
-35 31 -32 41 6 20 11 -6 25 -9 32 -6 7 2 -5 12 -26 22 -45 21 -60 39 -20 24
15 -6 29 -10 31 -10 14 4 32 -1 27 -8 -3 -5 0 -13 6 -17 8 -4 9 -3 5 4 -9 15
9 15 35 2 10 -6 19 -8 19 -6 0 10 -60 37 -89 41 -15 1 -43 10 -63 18 -20 8
-39 13 -41 10 -3 -2 -7 0 -10 5 -8 11 60 7 94 -6z m-233 -134 c-6 -12 -5 -18
3 -18 7 0 9 -9 5 -23 -4 -17 1 -30 17 -44 23 -21 88 -53 106 -53 6 0 11 -4 11
-10 0 -5 7 -10 15 -10 8 0 38 -20 68 -44 29 -24 64 -49 77 -56 54 -29 177
-139 232 -208 76 -96 103 -151 116 -237 16 -103 25 -412 13 -465 -5 -25 -14
-112 -21 -195 -12 -169 -33 -283 -58 -317 -9 -13 -26 -41 -37 -63 -29 -58
-189 -229 -247 -263 -16 -9 -28 -20 -28 -23 0 -11 -61 -39 -71 -33 -5 3 -23
-6 -40 -21 -61 -50 -88 -59 -184 -58 -151 2 -205 22 -299 110 -23 22 -57 50
-76 63 -19 13 -50 40 -68 59 -18 20 -50 54 -72 76 -22 22 -40 44 -40 48 0 5
-11 23 -24 40 -13 18 -27 43 -31 57 -4 14 -11 30 -15 35 -11 15 -20 54 -26
110 -3 28 -12 79 -20 115 -31 137 -39 208 -35 295 2 50 3 106 2 125 -6 118 2
295 19 377 41 205 199 380 445 491 39 17 85 35 103 38 18 4 35 11 38 15 3 5
15 9 27 9 37 1 56 24 63 76 8 63 13 71 29 42 7 -14 9 -30 3 -40z m366 6 c4
-10 1 -14 -6 -12 -15 5 -23 28 -10 28 5 0 13 -7 16 -16z m-634 2 c0 -2 -18
-15 -41 -30 l-41 -27 23 30 c13 17 31 31 41 31 10 0 18 -2 18 -4z m-240 -16
c-8 -5 -11 -12 -7 -16 3 -4 13 -1 22 6 8 7 15 8 15 2 0 -15 -32 -24 -44 -12
-7 7 -14 3 -24 -12 -8 -15 -11 -16 -8 -5 3 11 2 15 -4 12 -15 -9 -12 -42 5
-49 8 -3 23 -3 33 0 10 3 4 -5 -13 -20 -16 -14 -26 -28 -22 -32 4 -4 7 -2 7 4
0 6 6 9 13 6 8 -3 20 2 27 10 12 16 30 13 30 -4 0 -15 -52 -70 -61 -64 -5 3
-9 0 -9 -6 0 -10 -70 -120 -76 -120 -2 0 1 12 7 26 5 15 8 29 5 31 -2 3 -7 -5
-11 -16 -3 -12 -13 -21 -21 -21 -8 0 -14 -7 -14 -16 0 -30 -25 -7 -26 24 -1
29 21 62 35 54 3 -2 7 1 9 6 2 6 -5 9 -14 8 -17 -3 -48 -35 -57 -59 -2 -6 -8
-9 -12 -5 -8 8 50 99 71 111 8 4 14 13 14 18 0 6 -5 7 -12 3 -7 -4 -8 -3 -4 4
7 12 36 5 36 -8 0 -5 -4 -12 -10 -15 -5 -3 -10 -14 -10 -23 1 -15 2 -15 15 2
17 22 21 71 5 61 -5 -3 -10 0 -10 8 0 7 11 20 25 27 15 8 25 22 25 36 0 26 34
54 65 54 16 0 17 -2 5 -10z m725 0 c3 -5 2 -10 -4 -10 -5 0 -13 5 -16 10 -3 6
-2 10 4 10 5 0 13 -4 16 -10z m-465 -10 c0 -5 -5 -10 -11 -10 -5 0 -7 5 -4 10
3 6 8 10 11 10 2 0 4 -4 4 -10z m4417 2 c6 -4 11 -31 11 -61 1 -29 4 -79 7
-110 4 -31 8 -70 10 -88 5 -46 34 -86 51 -73 7 7 11 24 8 43 -3 20 1 39 12 52
15 19 16 19 27 2 7 -10 29 -42 50 -70 35 -46 38 -56 32 -92 -7 -48 -27 -108
-49 -150 -9 -16 -16 -37 -16 -45 0 -8 -11 -39 -25 -68 -31 -67 -63 -82 -174
-82 -163 0 -241 38 -241 116 0 20 -9 51 -20 69 -25 40 -41 152 -33 227 6 61
23 70 23 12 0 -39 16 -45 31 -10 8 16 17 22 30 19 17 -5 19 -12 13 -57 -4 -28
-14 -63 -22 -78 -14 -24 -14 -31 2 -82 10 -31 22 -54 26 -51 5 3 14 -12 20
-32 19 -58 30 -62 31 -12 1 79 5 113 22 193 17 75 17 79 0 92 -10 7 -13 14 -7
14 7 0 14 10 18 23 5 18 8 19 16 7 18 -28 27 5 39 145 8 82 18 143 24 147 15
10 69 10 84 0z m-6022 -21 c-3 -6 -11 -11 -16 -11 -5 0 -4 6 3 14 14 16 24 13
13 -3z m1575 5 c0 -3 -4 -8 -10 -11 -5 -3 -10 -1 -10 4 0 6 5 11 10 11 6 0 10
-2 10 -4z m45 -16 c-3 -5 -16 -10 -28 -10 -18 0 -19 2 -7 10 20 13 43 13 35 0z
m58 3 c-13 -2 -23 -9 -23 -14 0 -6 -4 -7 -10 -4 -21 13 -9 25 23 24 23 -1 26
-3 10 -6z m-283 -53 c0 -5 -4 -10 -10 -10 -5 0 -10 5 -10 10 0 6 5 10 10 10 6
0 10 -4 10 -10z m2780 -122 c0 -20 -18 -5 -23 19 -5 26 -4 26 9 8 8 -10 14
-22 14 -27z m-4566 -84 c24 -39 27 -49 17 -70 -26 -56 -30 -72 -35 -123 -5
-62 -17 -76 -67 -84 -34 -5 -38 -2 -78 49 l-42 54 18 28 c35 53 43 67 62 107
23 49 56 85 79 85 9 0 30 -21 46 -46z m1526 -6 c0 -6 -10 -22 -22 -35 -19 -20
-20 -26 -8 -33 14 -9 12 -18 -22 -84 -6 -11 -13 -39 -17 -64 -4 -31 -11 -46
-22 -47 -12 -2 -15 3 -11 18 5 20 6 20 14 1 6 -14 7 -10 4 13 -3 18 -2 34 3
37 4 3 8 22 9 43 1 21 8 43 17 49 8 6 13 18 9 27 -3 9 2 32 11 51 17 35 35 48
35 24z m-2236 -22 c10 -6 24 -28 31 -48 21 -62 -16 -119 -87 -132 -29 -5 -41
-2 -64 17 -22 19 -28 34 -31 78 -4 60 -1 67 42 91 32 17 76 15 109 -6z m2269
8 c14 -5 12 -54 -2 -54 -3 0 -15 -16 -25 -35 -23 -42 -32 -39 -17 7 6 18 13
45 16 61 6 29 6 30 28 21z m3000 -50 c-6 -15 -53 -47 -59 -41 -3 3 2 12 11 20
8 9 15 24 15 35 0 10 3 22 7 25 9 9 32 -25 26 -39z m-43 26 c0 -5 -5 -10 -11
-10 -5 0 -7 5 -4 10 3 6 8 10 11 10 2 0 4 -4 4 -10z m-3024 -176 c-4 -9 -9
-15 -11 -12 -3 3 -3 13 1 22 4 9 9 15 11 12 3 -3 3 -13 -1 -22z m1491 -26 c-3
-7 -5 -2 -5 12 0 14 2 19 5 13 2 -7 2 -19 0 -25z m-3898 -47 c31 -24 24 -53
-16 -64 -36 -11 -84 6 -102 35 -9 14 -6 20 17 32 36 20 72 19 101 -3z m10424
4 c134 -8 165 -24 71 -36 -72 -10 -427 -31 -516 -32 l-76 0 -7 -116 c-4 -66
-13 -124 -20 -134 -11 -16 -14 -12 -21 35 -4 29 -8 62 -7 73 0 11 1 45 3 75 3
75 3 78 -20 90 -16 8 -28 8 -49 -3 -15 -8 -52 -14 -82 -13 -44 1 -54 4 -57 20
-2 10 2 22 10 27 22 15 104 10 118 -6 11 -13 15 -13 33 0 12 8 32 15 44 15 13
0 23 4 23 9 0 10 369 8 553 -4z m-8304 -56 c15 -43 -9 -66 -73 -74 -72 -9 -96
-1 -96 34 0 22 9 32 43 52 77 44 107 41 126 -12z m232 -9 c-5 -25 -9 -35 -10
-24 -1 28 11 92 16 79 1 -6 -1 -30 -6 -55z m-2230 19 c12 -24 -5 -59 -29 -59
-9 0 -25 12 -35 26 -18 24 -18 27 -2 44 19 21 51 16 66 -11z m1763 -31 c4 -23
12 -48 17 -55 6 -6 8 -17 4 -22 -6 -11 -33 0 -67 28 -21 17 -24 61 -4 61 8 0
16 7 20 15 10 27 23 16 30 -27z m7686 -134 c-5 -93 -11 -241 -14 -329 -3 -88
-15 -214 -26 -280 -11 -66 -23 -145 -28 -175 -6 -43 -9 -19 -10 115 -3 174 8
328 34 515 8 58 16 149 19 204 4 83 18 137 31 123 2 -2 -1 -79 -6 -173z
m-7243 119 c-3 -10 -5 -4 -5 12 0 17 2 24 5 18 2 -7 2 -21 0 -30z m5396 3 c8
-20 -13 -36 -45 -36 -20 0 -28 5 -28 18 0 10 3 22 7 25 12 12 61 7 66 -7z
m-10169 -2 c9 -3 16 -13 16 -20 0 -12 -4 -12 -20 -4 -11 6 -20 15 -20 20 0 12
3 12 24 4z m2387 -15 c9 -17 8 -23 -2 -30 -18 -11 -44 14 -36 35 9 22 24 20
38 -5z m2377 -99 c-3 -50 -2 -87 3 -84 12 7 11 -7 0 -25 -13 -21 -21 38 -17
119 4 79 4 80 12 80 4 0 4 -40 2 -90z m-2488 65 c10 -12 9 -20 -4 -40 -25 -38
-76 -28 -76 15 0 37 55 55 80 25z m1858 -17 c9 -8 16 -6 26 7 17 24 46 13 46
-18 0 -13 6 -32 14 -42 8 -11 12 -24 9 -31 -2 -6 5 -38 16 -70 27 -75 26 -84
-5 -84 -14 0 -23 4 -19 10 8 13 -37 41 -71 43 -24 2 -28 -2 -26 -18 4 -26 9
-65 11 -88 1 -16 9 -17 80 -11 83 7 95 3 166 -58 11 -9 63 -41 116 -71 53 -30
111 -70 129 -88 l31 -33 -2 -501 c-2 -448 -8 -695 -23 -925 -3 -41 -8 -122
-10 -179 -3 -59 -10 -109 -17 -118 -37 -44 -96 -222 -105 -310 -8 -94 -31
-205 -43 -212 -5 -4 -13 -27 -16 -51 -3 -25 -8 -58 -10 -73 -3 -15 -1 -26 4
-23 4 3 11 30 14 59 4 29 14 69 24 88 l17 34 6 -30 c4 -17 5 -71 4 -120 -1
-52 1 -79 5 -65 6 20 10 10 17 -45 5 -38 8 -77 6 -85 -1 -8 -4 -87 -8 -175 -6
-191 -52 -467 -95 -578 -23 -58 -24 -87 -4 -87 11 0 15 -12 15 -44 0 -25 5
-48 10 -51 6 -3 10 -19 10 -36 0 -22 -5 -29 -20 -29 -10 0 -24 -8 -29 -17 -6
-10 -11 -13 -11 -8 0 13 -117 10 -153 -4 -16 -6 -43 -11 -60 -11 -28 0 -34 5
-49 40 -12 28 -23 40 -37 40 -12 0 -21 4 -21 8 0 5 -23 19 -51 32 -28 14 -61
36 -72 50 -12 14 -39 36 -59 49 -21 12 -38 27 -38 32 0 5 -7 9 -15 9 -8 0 -22
12 -31 28 -9 15 -25 39 -35 53 -10 15 -21 40 -25 55 -3 16 -17 48 -30 70 -26
46 -59 182 -70 285 -9 92 4 96 72 23 30 -33 54 -62 54 -66 0 -5 15 -8 33 -8
32 0 35 -3 60 -65 32 -76 32 -79 11 -71 -11 4 -15 0 -12 -16 3 -23 11 -28 79
-54 62 -24 90 -66 98 -147 7 -63 26 -107 48 -107 6 0 13 -6 16 -12 3 -8 9 -1
16 14 12 33 6 54 -26 89 -19 21 -22 31 -14 50 5 14 16 31 25 38 35 29 15 77
-46 115 -73 44 -117 91 -163 172 -24 44 -48 84 -52 89 -4 6 -15 23 -23 39 -8
16 -38 44 -65 62 -70 44 -76 54 -82 126 -2 35 -14 88 -25 118 -30 77 -77 170
-86 170 -8 0 -25 -78 -37 -170 -7 -49 -18 -83 -46 -146 -21 -44 -26 -114 -8
-114 5 0 7 -5 3 -11 -8 -14 14 -29 45 -29 18 0 22 -4 16 -17 -4 -10 -12 -36
-18 -58 -5 -22 -20 -66 -33 -98 -13 -32 -24 -64 -24 -71 0 -6 -18 -29 -39 -50
-34 -33 -44 -37 -68 -31 -15 4 -65 6 -110 6 l-83 -1 0 83 c0 56 -5 94 -16 115
-47 95 42 94 103 -1 35 -54 44 -27 11 34 -40 72 -44 78 -86 121 l-42 42 0 81
c0 45 -4 95 -10 111 -5 16 -14 81 -19 144 -49 558 -51 577 -77 724 -18 103
-26 189 -29 335 -3 108 -10 261 -16 341 -5 80 -11 198 -12 262 -1 65 -5 118
-8 118 -23 0 -48 -100 -54 -215 -4 -86 -14 -139 -26 -143 -5 -2 -9 -10 -9 -18
0 -18 -14 -18 -30 1 -7 8 -26 19 -43 23 -23 6 -33 16 -39 38 -4 17 -17 39 -28
49 -11 10 -20 24 -20 31 0 7 -8 10 -19 7 -26 -7 -36 15 -16 35 45 46 105 116
105 124 0 5 5 6 10 3 6 -3 10 -2 10 4 0 6 20 30 44 54 24 25 47 55 51 68 4 13
28 51 53 83 24 33 51 73 58 90 21 47 58 88 75 81 8 -3 22 -19 31 -35 9 -16 31
-38 49 -49 l33 -20 45 38 c25 21 85 64 132 94 48 31 94 68 103 82 9 14 71 81
137 149 83 86 133 130 162 141 103 42 202 75 226 75 25 0 68 20 44 20 -6 0
-19 18 -29 40 -10 22 -21 40 -24 40 -3 0 -12 17 -19 38 -8 20 -22 47 -32 60
-10 13 -15 31 -13 40 15 47 48 101 67 109 24 11 114 -2 135 -19z m6044 -29
c42 -13 80 -34 100 -53 51 -49 84 -66 125 -66 37 0 39 -2 60 -57 22 -57 22
-57 3 -89 -24 -38 -25 -44 -5 -44 8 0 15 -5 15 -11 0 -7 -9 -9 -23 -5 -12 3
-35 -1 -49 -8 -23 -12 -99 -21 -150 -17 -12 1 -18 9 -18 24 0 24 -61 87 -83
87 -27 1 -167 -35 -167 -42 0 -4 -9 -8 -21 -8 -28 0 -21 34 9 38 12 2 22 9 22
15 0 7 9 18 20 25 28 17 25 31 -11 44 -59 20 -66 95 -14 144 52 49 90 53 187
23z m-10172 -29 c4 0 10 -7 14 -15 6 -16 -11 -20 -32 -6 -9 5 -11 17 -5 37 7
26 8 27 11 7 2 -13 7 -23 12 -23z m4777 -37 c-2 -16 -4 -5 -4 22 0 28 2 40 4
28 2 -13 2 -35 0 -50z m-2283 48 c3 -5 -1 -11 -9 -15 -9 -3 -15 0 -15 9 0 16
16 20 24 6z m2275 -188 c0 -40 -3 -52 -8 -38 -8 19 -9 18 -13 -5 -4 -19 -6
-17 -7 12 -1 35 13 88 24 88 3 0 5 -26 4 -57z m7533 0 c-1 -21 3 -65 8 -98 11
-72 -2 -181 -24 -204 -15 -14 -18 -14 -32 1 -15 15 -16 30 -6 140 9 111 36
218 50 203 3 -2 5 -22 4 -42z m-8293 -77 c-11 -9 -90 -16 -84 -6 3 5 25 10 47
10 23 0 39 -2 37 -4z m-1676 -30 c46 -19 65 -40 133 -141 95 -142 168 -298
156 -335 -18 -57 -216 -163 -272 -145 -13 4 -31 -1 -49 -14 -16 -12 -33 -21
-39 -21 -5 0 -29 -15 -54 -34 -55 -42 -162 -100 -177 -95 -7 3 -6 14 4 33 8
15 15 30 15 32 0 2 -20 -10 -44 -27 -42 -30 -66 -32 -66 -5 0 7 -27 101 -59
209 -33 108 -63 216 -66 240 -7 42 -5 47 38 93 44 46 46 48 80 37 39 -12 53
-6 105 39 18 15 53 33 78 39 25 7 49 20 55 30 7 14 106 75 127 79 1 0 17 -6
35 -14z m7860 -14 c21 -18 22 -42 2 -42 -8 0 -15 9 -15 20 0 11 -7 23 -15 26
-8 4 -15 10 -15 16 0 10 16 3 43 -20z m-5503 -99 c-10 -16 -11 -15 -6 7 3 14
6 34 7 45 1 13 3 11 6 -7 2 -15 -1 -35 -7 -45z m54 -33 c-8 -71 -14 -60 -13
26 1 63 3 73 10 49 5 -16 6 -50 3 -75z m5858 78 c2 -13 9 -23 16 -23 27 0 35
-49 11 -65 -5 -3 -15 -21 -22 -39 -15 -34 -15 -34 -27 -11 -10 18 -14 20 -21
9 -13 -20 -11 -29 5 -29 38 0 24 -52 -28 -107 -43 -46 -62 -40 -64 21 -2 34 2
46 12 46 16 0 31 18 22 27 -3 3 -13 0 -22 -7 -13 -12 -17 -11 -24 1 -10 15 -3
57 12 76 5 7 8 28 7 47 -4 43 8 57 58 66 59 12 61 11 65 -12z m4632 -24 c9
-25 7 -34 -8 -34 -19 0 -28 14 -20 34 8 20 20 20 28 0z m-4866 -11 c-2 -10
-18 -28 -35 -41 -18 -12 -42 -41 -53 -63 -12 -22 -29 -43 -38 -46 -23 -8 -52
-39 -45 -47 4 -3 14 -6 24 -6 10 0 20 -4 23 -8 5 -8 -13 -67 -27 -90 -5 -7 -5
-21 -2 -32 5 -16 2 -20 -14 -20 -12 0 -29 -9 -38 -20 -10 -11 -25 -20 -34 -20
-24 0 -59 35 -59 59 0 17 -6 21 -29 21 -40 0 -59 24 -37 48 9 10 16 29 16 41
0 31 44 26 48 -6 4 -24 29 -50 39 -39 4 3 1 21 -5 39 -7 19 -12 48 -12 66 0
26 5 34 28 42 29 10 65 57 75 101 8 31 20 35 110 37 59 1 68 -1 65 -16z m-422
-49 c2 -19 6 -44 9 -55 5 -15 1 -19 -17 -19 -36 0 -51 31 -34 72 25 59 37 60
42 2z m4941 4 c-3 -7 -5 -2 -5 12 0 14 2 19 5 13 2 -7 2 -19 0 -25z m-4819 0
c-2 -4 6 -14 17 -22 28 -21 0 -20 -36 1 -36 21 -37 35 -4 31 14 -2 24 -6 23
-10z m-5368 -88 c0 -43 -4 -82 -10 -85 -6 -4 -9 28 -9 84 1 50 5 88 10 85 5
-3 9 -41 9 -84z m75 8 c8 -134 17 -523 12 -518 -3 3 -8 61 -11 130 -16 385
-18 464 -11 458 3 -3 8 -35 10 -70z m5023 19 c2 -10 -3 -17 -12 -17 -10 0 -16
9 -16 21 0 24 23 21 28 -4z m-3333 -37 c3 -5 1 -10 -4 -10 -6 0 -11 5 -11 10
0 6 2 10 4 10 3 0 8 -4 11 -10z m-6165 -15 c20 -11 21 -14 7 -15 -10 0 -25 7
-33 15 -19 19 -7 19 26 0z m4447 -7 c-3 -8 -6 -5 -6 6 -1 11 2 17 5 13 3 -3 4
-12 1 -19z m2968 12 c-3 -5 -11 -10 -16 -10 -6 0 -7 5 -4 10 3 6 11 10 16 10
6 0 7 -4 4 -10z m4571 -16 c7 -29 -24 -254 -37 -268 -18 -19 -22 7 -21 134 1
131 7 160 38 160 8 0 17 -11 20 -26z m-5932 1 c3 -8 1 -15 -4 -15 -6 0 -10 7
-10 15 0 8 2 15 4 15 2 0 6 -7 10 -15z m3263 -59 c5 -44 -14 -96 -35 -96 -5 0
-19 20 -31 45 -29 58 -25 107 10 116 33 9 50 -11 56 -65z m127 45 c22 -25 17
-56 -9 -56 -16 0 -21 8 -23 38 -4 41 6 47 32 18z m-3253 -18 c-12 -20 -14 -14
-5 12 4 9 9 14 11 11 3 -2 0 -13 -6 -23z m3019 -23 c21 -29 21 -32 6 -55 -23
-36 -43 -31 -66 16 -17 32 -19 44 -9 55 19 23 46 16 69 -16z m-3143 -32 c-3
-8 -6 -5 -6 6 -1 11 2 17 5 13 3 -3 4 -12 1 -19z m-1610 -10 c-3 -8 -6 -5 -6
6 -1 11 2 17 5 13 3 -3 4 -12 1 -19z m4673 -76 c0 -9 11 -36 25 -59 13 -24 23
-43 21 -43 -2 0 -16 4 -32 9 -16 5 -41 12 -55 15 -24 5 -26 10 -28 62 -1 31 1
66 5 77 6 20 8 19 35 -11 16 -18 29 -40 29 -50z m5348 63 c11 -10 -50 -55 -75
-55 -27 0 -40 35 -22 57 10 11 24 14 52 10 21 -3 42 -8 45 -12z m42 5 c0 -5
-7 -10 -16 -10 -8 0 -12 5 -9 10 3 6 10 10 16 10 5 0 9 -4 9 -10z m-7278 -42
c-5 -21 -32 -25 -32 -5 0 17 6 24 24 24 8 0 11 -8 8 -19z m178 -37 c-10 -27
-17 -51 -14 -54 3 -2 0 -44 -6 -93 -66 -564 -76 -1084 -26 -1443 15 -112 11
-109 -68 49 -30 58 -63 123 -76 145 -12 22 -47 85 -78 140 -55 99 -146 201
-267 300 -40 33 -210 125 -230 125 -6 0 -27 11 -46 25 -24 18 -41 24 -59 20
-19 -4 -21 -3 -10 5 8 5 11 10 5 11 -24 2 -53 9 -102 24 -63 20 -76 46 -63
132 16 112 32 143 46 88 4 -16 13 -25 25 -25 10 0 19 -4 19 -8 0 -4 15 -15 33
-24 17 -8 52 -25 76 -38 33 -16 63 -22 115 -23 78 -1 154 10 173 25 7 5 17 7
22 4 5 -4 12 -2 16 4 3 5 1 10 -4 10 -13 0 -15 27 -3 32 5 2 26 30 48 63 21
33 58 80 82 104 23 25 59 69 80 99 20 30 44 57 52 60 26 9 190 163 190 178 0
8 4 14 10 14 5 0 17 15 26 33 15 30 43 67 50 67 2 0 -5 -22 -16 -49z m7155 39
c3 -5 1 -10 -4 -10 -6 0 -11 5 -11 10 0 6 2 10 4 10 3 0 8 -4 11 -10z m-8454
-46 c5 -15 8 -29 5 -31 -2 -2 -8 10 -14 26 -13 38 -5 41 9 5z m4152 -37 c21
-8 42 -18 48 -24 15 -15 -18 -111 -52 -150 -16 -18 -33 -52 -39 -75 -18 -76
-52 -151 -107 -241 -29 -49 -53 -93 -53 -99 0 -5 -7 -24 -15 -41 -44 -94 -46
-117 -51 -547 -3 -228 -7 -419 -9 -425 -1 -5 -17 20 -33 56 -26 55 -31 78 -30
137 1 88 -21 134 -83 179 -60 43 -73 57 -154 153 -38 46 -90 105 -114 131
l-43 48 58 98 c32 54 68 128 81 166 12 37 31 82 42 100 25 41 43 120 35 152
-3 13 -21 33 -40 44 -28 17 -34 26 -34 55 0 31 4 36 28 42 15 3 41 11 57 17
17 6 68 12 115 12 86 1 198 31 274 75 118 67 132 83 91 102 -14 6 -25 19 -25
30 0 21 3 22 53 5z m-4184 -97 c0 -8 -7 1 -14 20 -18 46 -17 64 0 25 8 -16 14
-37 14 -45z m6803 20 c46 -13 68 -34 68 -66 0 -17 -7 -25 -25 -29 -14 -3 -36
-7 -49 -10 -14 -3 -36 -1 -50 5 -23 8 -26 15 -26 54 0 43 2 46 40 55 3 0 22
-4 42 -9z m-6809 -68 c7 18 27 -9 27 -37 0 -16 -2 -17 -9 -6 -5 8 -17 16 -25
17 -13 2 -12 -3 5 -27 20 -29 20 -31 3 -50 -17 -19 -18 -19 -28 -2 -13 23 -16
83 -4 83 5 0 7 10 3 23 -6 21 -5 21 8 4 11 -14 16 -15 20 -5z m367 -12 c0 -5
-4 -10 -10 -10 -5 0 -10 5 -10 10 0 6 5 10 10 10 6 0 10 -4 10 -10z m6701 -9
c21 -13 42 -18 59 -14 31 6 62 -19 54 -42 -8 -20 -41 -19 -61 1 -11 11 -19 12
-26 5 -17 -17 -142 -14 -157 4 -18 21 4 45 41 45 15 0 31 5 34 10 9 14 20 12
56 -9z m220 -7 c9 -11 10 -17 1 -23 -7 -4 -8 -12 -2 -21 18 -28 11 -40 -24
-40 -27 0 -36 5 -41 21 -5 15 -2 25 9 31 9 5 14 13 11 19 -17 27 24 39 46 13z
m-6586 -83 c-16 -15 -17 -15 -6 6 14 27 14 36 1 28 -5 -3 -10 -2 -10 4 0 5 6
11 13 14 19 6 21 -34 2 -52z m7941 44 c-2 -14 -101 -85 -118 -85 -13 0 -30 42
-21 50 8 9 109 46 130 49 6 0 10 -6 9 -14z m-8518 -36 c-3 -8 -7 -3 -11 10 -4
17 -3 21 5 13 5 -5 8 -16 6 -23z m7251 -11 c7 -11 24 -23 37 -28 28 -11 31
-36 8 -70 -33 -49 -74 -67 -74 -32 0 10 -3 22 -7 26 -14 14 -31 76 -21 82 5 3
7 13 4 21 -14 36 26 37 53 1z m-6604 12 c3 -5 1 -10 -4 -10 -6 0 -11 5 -11 10
0 6 2 10 4 10 3 0 8 -4 11 -10z m4880 -10 c4 -6 -5 -10 -19 -10 -14 0 -26 5
-26 10 0 6 9 10 19 10 11 0 23 -4 26 -10z m55 0 c-18 -12 -30 -13 -30 -2 0 4
10 9 22 9 18 2 20 0 8 -7z m1860 -15 c0 -16 -55 -55 -77 -55 -24 0 -13 28 20
49 38 25 57 27 57 6z m70 -15 c0 -5 -5 -10 -11 -10 -5 0 -7 5 -4 10 3 6 8 10
11 10 2 0 4 -4 4 -10z m-80 -48 c0 -9 -25 -33 -47 -46 -20 -11 -15 12 7 34 21
21 40 26 40 12z m-7840 -22 c0 -11 5 -20 11 -20 8 0 9 -11 4 -32 -20 -94 -32
-214 -23 -232 14 -26 4 -34 -172 -127 -85 -44 -162 -88 -171 -95 -8 -8 -19
-14 -23 -14 -5 0 -31 -16 -58 -36 -51 -38 -80 -46 -110 -32 -10 5 -18 3 -22
-7 -8 -23 -66 1 -67 28 -2 21 -2 21 -6 1 -3 -16 -10 -20 -33 -16 -20 3 -30 0
-30 -9 0 -8 -6 -5 -16 7 -15 18 -15 18 -9 -11 l7 -30 -19 25 c-21 27 -59 140
-77 230 l-12 56 25 -4 c24 -5 25 -4 8 12 -21 22 -40 56 -34 62 3 3 12 -2 21
-11 29 -30 144 -56 246 -58 81 -1 102 2 140 22 54 28 168 114 303 228 54 46
102 83 107 83 6 0 10 -9 10 -20z m310 -59 c0 -34 -16 -15 -25 29 -7 33 -6 34
9 15 8 -11 16 -31 16 -44z m8458 11 c4 -26 -17 -37 -53 -28 -29 7 -33 30 -7
45 27 17 57 9 60 -17z m165 -39 c9 -6 9 -35 -1 -51 -7 -10 -20 -10 -60 -1 -44
9 -52 14 -52 33 0 13 3 26 7 30 8 7 90 -1 106 -11z m167 -63 c0 -5 -2 -10 -4
-10 -3 0 -8 5 -11 10 -3 6 -1 10 4 10 6 0 11 -4 11 -10z m-270 -60 c46 -23 51
-46 14 -60 -19 -7 -33 -6 -57 6 -40 21 -48 33 -36 56 12 23 31 23 79 -2z m88
-29 c3 -8 -1 -12 -9 -9 -7 2 -15 10 -17 17 -3 8 1 12 9 9 7 -2 15 -10 17 -17z
m-8888 -26 c0 -19 -4 -35 -10 -35 -11 0 -14 53 -3 63 11 12 13 8 13 -28z
m-3596 -11 c10 -4 16 -18 16 -39 0 -25 -5 -34 -22 -40 -22 -7 -22 -7 -3 -12
90 -23 37 -80 -62 -67 -47 6 -54 9 -50 25 3 11 0 19 -6 19 -7 0 -13 11 -13 24
-1 18 5 26 22 30 12 3 38 20 56 36 35 32 38 33 62 24z m12703 -88 c-14 -12
-30 -37 -35 -56 -6 -24 -14 -34 -25 -32 -33 6 -26 -18 10 -33 43 -19 284 -49
325 -41 39 8 43 -19 18 -106 -12 -39 -50 -185 -85 -323 -35 -138 -70 -267 -78
-286 -7 -19 -12 -40 -10 -46 7 -21 -18 -83 -33 -83 -8 0 -14 -5 -14 -11 0 -5
5 -7 10 -4 6 3 10 -3 10 -14 0 -12 -4 -21 -10 -21 -5 0 -10 -9 -10 -20 0 -11
-4 -20 -10 -20 -5 0 -11 -17 -11 -37 -1 -27 -3 -31 -6 -14 -7 34 -27 51 -62
51 -33 0 -45 26 -14 32 15 3 15 4 0 17 -15 12 -17 11 -17 -3 0 -13 -13 -16
-80 -16 -64 0 -80 -3 -80 -15 0 -17 -11 -18 -99 -9 -60 7 -78 18 -43 27 13 4
11 5 -5 6 -31 1 -29 29 2 41 14 5 27 20 31 35 3 14 14 31 24 38 23 16 96 130
110 171 9 28 14 32 38 29 20 -3 34 3 56 26 22 22 39 31 63 31 43 0 68 35 54
74 -6 14 -16 27 -23 28 -7 0 -20 2 -28 2 -15 1 -15 8 -3 68 6 31 -24 53 -58
43 -23 -8 -49 -60 -49 -102 l-1 -28 -14 33 c-29 66 -103 27 -83 -45 5 -19 7
-37 4 -40 -7 -7 -44 17 -77 51 -18 17 -39 27 -67 29 -23 3 -49 10 -57 17 -13
11 -18 10 -29 -5 -12 -17 -13 -17 -18 3 -7 24 -49 48 -71 39 -8 -3 -19 -26
-26 -51 -6 -25 -13 -46 -16 -46 -12 0 -34 61 -28 77 3 10 -7 4 -24 -14 -16
-18 -36 -33 -43 -33 -8 0 -10 -8 -5 -27 14 -60 16 -91 6 -97 -6 -4 -11 -1 -11
6 0 8 -5 19 -12 26 -15 15 -87 -63 -88 -96 0 -35 45 -75 79 -70 26 4 28 2 17
-14 -6 -11 -23 -18 -41 -18 -17 0 -41 -7 -54 -16 -19 -14 -25 -14 -32 -3 -18
27 -22 62 -11 93 5 17 10 53 11 80 1 38 8 57 31 86 17 21 30 43 30 49 0 14 42
31 76 31 35 0 31 31 -8 53 l-32 18 -37 -38 c-21 -21 -38 -43 -39 -49 0 -6 -6
-17 -14 -23 -8 -7 -18 -27 -22 -44 -8 -38 -52 -117 -65 -117 -5 0 -9 -7 -9
-15 0 -8 -4 -15 -9 -15 -6 0 -5 13 1 32 10 28 9 33 -12 50 -12 10 -28 18 -36
18 -19 0 -19 -70 1 -96 8 -10 15 -29 15 -42 0 -29 29 -41 45 -19 7 10 15 17
18 17 7 0 23 -53 43 -140 16 -76 17 -80 5 -61 -8 12 -11 9 -17 -13 -4 -16 -8
-38 -9 -50 -1 -11 -3 -24 -4 -28 -2 -11 -58 -10 -79 2 -9 5 -39 13 -67 18 -54
8 -73 30 -84 101 -4 19 -11 36 -17 38 -16 5 -23 -31 -14 -72 8 -35 8 -35 -24
-31 -31 4 -116 22 -148 32 -20 6 -26 68 -8 79 6 3 10 26 10 51 0 24 11 112 25
194 23 135 40 219 106 525 11 50 22 104 25 121 4 17 16 44 28 59 18 23 28 27
50 21 14 -3 32 -18 38 -31 10 -22 18 -25 62 -25 28 0 92 -5 141 -11 231 -27
242 -27 267 1 14 16 22 36 20 49 -3 21 -1 23 25 17 41 -11 48 -21 34 -52 -8
-18 -9 -30 -2 -37 16 -16 41 1 41 28 0 38 48 55 71 26 10 -12 25 -21 34 -21
14 0 16 -6 11 -30 -7 -37 13 -49 55 -33 21 8 29 8 32 -2 7 -17 82 -25 116 -12
24 9 27 14 18 27 -16 27 -1 49 47 70 24 11 49 27 56 35 7 8 17 12 23 8 6 -4 0
-15 -16 -27z m-12792 -155 c49 -26 50 -28 50 -74 1 -26 -2 -51 -5 -56 -3 -4
-39 -11 -80 -14 -65 -5 -80 -4 -105 13 -17 11 -27 20 -22 20 4 0 -2 17 -12 39
-19 36 -19 39 -3 53 66 55 103 59 177 19z m9190 19 c3 -6 3 -30 0 -54 -6 -36
-10 -43 -25 -39 -20 5 -32 63 -17 88 9 17 33 20 42 5z m-9059 -45 c29 -29 48
-145 23 -145 -5 0 -16 15 -23 33 -22 54 -25 61 -38 79 -9 13 -9 20 1 32 16 20
19 20 37 1z m4094 -15 c3 -1 10 -1 15 0 6 1 7 -2 2 -6 -14 -14 -45 -14 -50 0
-5 12 10 15 33 6z m167 -16 c-9 -10 -67 -22 -67 -15 0 13 7 16 40 17 17 1 29
0 27 -2z m-192 -34 c3 -5 1 -10 -4 -10 -6 0 -11 5 -11 10 0 6 2 10 4 10 3 0 8
-4 11 -10z m295 -17 c0 -10 -6 -13 -17 -8 -14 5 -15 4 -6 -6 10 -10 15 -9 28
1 12 10 15 10 15 -4 0 -20 -32 -28 -95 -23 -27 2 -58 0 -67 -5 -13 -6 -16 -4
-13 12 2 13 -2 20 -11 20 -9 0 -12 -5 -8 -11 4 -7 1 -10 -6 -7 -8 2 -16 10
-18 16 -3 11 38 17 95 15 7 -1 11 3 8 7 -3 4 18 8 45 8 38 0 50 -4 50 -15z
m-210 -73 c-8 -5 -22 -10 -30 -10 -13 0 -13 1 0 10 8 5 22 10 30 10 13 0 13
-1 0 -10z m210 -15 c0 -17 -2 -18 -25 -9 -13 5 -14 8 -3 15 19 13 28 11 28 -6z
m-24 -42 c-14 -4 -16 -7 -6 -13 9 -6 4 -13 -18 -24 -36 -18 -42 -19 -42 -7 0
5 9 11 20 14 11 3 20 9 19 14 -3 18 2 23 24 22 19 -1 19 -2 3 -6z m6522 -41
c3 -17 -2 -22 -17 -22 -14 0 -21 6 -21 18 0 38 33 41 38 4z m-7277 -25 c-13
-13 -26 -3 -16 12 3 6 11 8 17 5 6 -4 6 -10 -1 -17z m939 7 c0 -8 4 -13 9 -10
11 7 46 -51 62 -104 7 -22 16 -40 22 -40 5 0 7 -7 3 -15 -3 -8 -1 -15 5 -15 6
0 9 -6 6 -12 -4 -14 31 -95 53 -125 12 -15 12 -16 0 -6 -11 10 -17 9 -32 -4
-10 -9 -18 -11 -18 -5 0 6 7 15 15 20 14 7 13 11 -3 30 -26 30 -36 28 -16 -3
9 -14 14 -26 10 -26 -3 -1 -12 -2 -18 -3 -7 -1 -12 -10 -10 -21 1 -11 3 -28 4
-37 2 -13 6 -14 20 -7 14 8 16 6 11 -8 -3 -10 -3 -15 2 -11 12 11 35 -18 35
-45 0 -14 7 -30 15 -37 15 -13 11 -35 -6 -25 -5 3 -7 -2 -4 -12 3 -10 -2 -3
-10 15 -9 18 -12 38 -9 44 4 6 3 8 -4 4 -6 -3 -17 2 -24 13 -14 19 -14 19 -26
1 -9 -16 -9 -21 5 -28 10 -6 14 -16 10 -26 -4 -9 -3 -15 2 -11 14 8 19 -18 8
-36 -8 -12 -5 -30 8 -65 11 -29 21 -42 23 -32 4 20 31 32 28 13 -1 -8 -5 -18
-9 -21 -4 -4 -7 -15 -7 -25 0 -15 -3 -16 -25 -6 -14 7 -25 16 -25 20 0 4 -8
17 -19 28 -10 11 -17 29 -14 39 3 10 0 21 -6 24 -6 4 -11 16 -11 27 0 11 -7
22 -15 25 -8 4 -15 16 -15 29 0 34 -20 83 -36 89 -8 3 -14 11 -14 18 0 9 3 8
10 -2 8 -12 10 -11 10 6 0 37 -29 37 -43 1 -13 -31 -14 -32 -25 -10 -13 23
-13 27 -9 136 1 37 -1 67 -5 67 -16 0 -7 27 28 84 19 32 36 72 37 87 2 30 17
41 17 13z m-330 -14 c0 -5 -8 -10 -17 -10 -15 0 -16 2 -3 10 19 12 20 12 20 0z
m-80 -21 c0 -4 -7 -6 -15 -3 -8 4 -15 10 -15 15 0 4 7 6 15 3 8 -4 15 -10 15
-15z m30 17 c0 -3 -4 -8 -10 -11 -5 -3 -10 -1 -10 4 0 6 5 11 10 11 6 0 10 -2
10 -4z m610 -28 c15 -21 17 -28 6 -19 -16 13 -41 51 -33 51 2 0 14 -15 27 -32z
m-693 -3 c0 -10 -4 -12 -12 -5 -7 5 -15 7 -18 3 -4 -3 -7 -1 -7 5 0 7 8 12 18
12 10 0 19 -7 19 -15z m-527 1 c0 -11 -19 -15 -25 -6 -3 5 1 10 9 10 9 0 16
-2 16 -4z m740 -24 c-7 -3 -19 3 -28 13 -16 15 -15 16 12 4 15 -7 23 -15 16
-17z m5118 16 c25 -25 9 -30 -83 -26 -96 4 -112 8 -100 27 9 15 168 14 183 -1z
m-5170 -83 c-3 -3 -9 2 -12 12 -6 14 -5 15 5 6 7 -7 10 -15 7 -18z m512 -19
c0 -12 -5 -7 -19 24 -11 24 -11 24 3 6 9 -11 16 -24 16 -30z m-600 20 c0 -2
-7 -7 -16 -10 -8 -3 -12 -2 -9 4 6 10 25 14 25 6z m-860 -26 c0 -5 -5 -10 -11
-10 -5 0 -7 5 -4 10 3 6 8 10 11 10 2 0 4 -4 4 -10z m810 6 c0 -3 -4 -8 -10
-11 -5 -3 -10 -1 -10 4 0 6 5 11 10 11 6 0 10 -2 10 -4z m-702 -12 c-6 -5 -32
-12 -55 -13 -7 -1 -13 -10 -13 -21 0 -11 -4 -20 -9 -20 -15 0 1 49 18 53 25 7
65 8 59 1z m1365 -24 c3 -11 1 -18 -4 -14 -5 3 -9 12 -9 20 0 20 7 17 13 -6z
m-1813 0 c5 8 12 11 16 7 4 -3 2 -13 -4 -20 -15 -18 -8 -52 17 -78 20 -22 21
-22 41 -4 20 18 21 18 14 0 -6 -14 -4 -16 6 -10 9 5 11 4 6 -4 -4 -6 -13 -8
-19 -5 -7 4 -4 -2 6 -12 11 -12 20 -15 25 -8 8 12 56 13 68 2 4 -5 -1 -18 -12
-30 -12 -13 -13 -18 -4 -13 13 8 13 6 2 -8 -16 -19 -6 -45 11 -28 16 16 23 14
24 -8 1 -11 -4 -25 -12 -31 -7 -6 -11 -20 -8 -30 6 -21 23 -28 23 -9 0 5 5 7
10 4 8 -5 7 -11 -1 -21 -20 -24 0 -29 24 -6 32 30 46 28 18 -2 -22 -23 -21
-54 0 -40 5 3 7 8 5 12 -2 4 7 8 21 9 19 1 22 -1 12 -8 -9 -6 -10 -9 -2 -9 6
0 15 5 18 11 10 16 28 5 30 -19 1 -11 -2 -19 -6 -17 -12 8 -30 -22 -23 -39 7
-18 20 -21 29 -6 3 6 13 10 21 10 17 0 13 -42 -4 -48 -7 -2 -12 -8 -12 -14 0
-6 8 -7 18 -4 16 6 16 5 0 -7 -20 -16 -14 -28 10 -20 14 5 13 3 -1 -9 -17 -13
-17 -15 -3 -27 13 -11 20 -11 41 3 32 21 33 21 30 -14 -3 -34 11 -49 28 -30 9
10 9 11 -2 5 -9 -5 -12 -4 -7 3 4 8 15 8 36 0 35 -12 37 -19 10 -43 -34 -31
-20 -66 19 -46 15 9 20 7 24 -10 9 -32 -28 -46 -143 -53 -98 -5 -220 -24 -385
-60 -83 -19 -95 -19 -95 -6 0 6 8 10 18 10 14 0 15 2 2 10 -8 5 -16 14 -16 20
-1 5 -3 20 -4 33 -2 17 -3 18 -7 5 -2 -10 -14 -18 -26 -18 -18 0 -19 -2 -7
-10 12 -8 10 -10 -9 -10 -20 0 -21 -2 -11 -15 10 -12 9 -15 -6 -15 -15 0 -16
-2 -5 -9 26 -16 -9 -25 -187 -46 -74 -8 -138 -13 -143 -10 -13 8 -22 72 -13
87 5 7 10 22 11 32 5 31 13 32 13 2 0 -16 4 -25 10 -21 6 3 10 24 10 46 0 46
34 101 57 92 13 -5 14 2 11 40 -3 27 -1 47 5 47 5 0 7 13 4 30 -4 16 -3 29 2
27 5 -1 9 3 9 8 0 6 -4 9 -9 7 -5 -1 -9 2 -9 8 0 6 12 10 28 10 23 0 27 4 28
32 1 30 1 30 -14 12 -13 -17 -14 -17 -8 -1 3 10 6 23 6 28 0 5 10 8 23 6 13
-1 21 3 19 11 -1 6 4 11 10 10 8 -2 12 7 11 22 -2 30 16 80 29 80 5 0 6 -4 3
-10 -3 -5 -1 -19 5 -31 9 -15 15 -18 23 -10 8 8 8 14 -1 23 -19 19 -14 49 8
55 11 3 20 14 20 25 0 11 5 18 12 16 7 -3 17 5 23 16 6 11 22 26 35 33 16 8
24 19 22 32 -2 16 1 18 20 14 22 -5 22 -5 4 9 -14 11 -16 17 -7 23 7 4 18 2
24 -4 20 -20 30 -12 23 20 -5 28 -4 30 10 18 13 -10 17 -10 24 1z m1755 -12
c5 4 5 1 1 -5 -4 -7 -4 -13 1 -13 10 0 24 -32 54 -123 18 -55 20 -70 9 -80
-10 -10 -11 -7 -5 12 5 15 3 21 -3 17 -6 -3 -15 9 -22 28 -6 19 -21 47 -33 62
-12 16 -17 25 -10 21 6 -4 13 0 17 8 3 8 2 15 -3 15 -4 0 -15 19 -24 43 -11
28 -12 36 -3 25 7 -10 17 -14 21 -10z m-259 -25 c-10 -10 -19 5 -10 18 6 11 8
11 12 0 2 -7 1 -15 -2 -18z m-993 -118 c-3 -9 -8 -14 -10 -11 -3 3 -2 9 2 15
9 16 15 13 8 -4z m1344 -17 c-3 -7 -5 -2 -5 12 0 14 2 19 5 13 2 -7 2 -19 0
-25z m-107 12 c0 -5 -2 -10 -4 -10 -3 0 -8 5 -11 10 -3 6 -1 10 4 10 6 0 11
-4 11 -10z m-700 -50 c0 -11 4 -20 8 -20 4 0 9 -14 10 -32 2 -18 6 -35 10 -38
4 -3 7 -12 7 -20 0 -8 6 -14 13 -12 8 1 11 -2 7 -8 -3 -6 -11 -8 -16 -4 -6 3
-10 0 -8 -7 1 -8 1 -23 0 -33 -3 -49 -25 26 -37 124 -3 30 -8 58 -11 63 -2 4
1 7 6 7 6 0 11 -9 11 -20z m77 -7 c0 -7 -4 -13 -8 -13 -4 0 -9 6 -12 13 -3 8
0 14 7 14 7 0 13 -6 13 -14z m373 -24 c0 -8 6 -7 17 2 9 8 14 9 10 2 -4 -6 -2
-24 3 -39 6 -14 13 -42 16 -61 5 -32 4 -34 -15 -24 -11 7 -25 19 -30 29 -13
24 -20 102 -9 102 4 0 8 -5 8 -11z m355 -19 c3 -6 -1 -7 -9 -4 -18 7 -21 14
-7 14 6 0 13 -4 16 -10z m-265 -10 c0 -5 -4 -10 -10 -10 -5 0 -10 5 -10 10 0
6 5 10 10 10 6 0 10 -4 10 -10z m-448 -62 c-6 -6 -15 -8 -19 -4 -4 4 -1 11 7
16 19 12 27 3 12 -12z m47 -42 c0 -6 -3 -5 -6 2 -2 6 -11 12 -19 12 -15 0 -19
12 -7 24 8 8 33 -22 32 -38z m611 11 c0 -5 -4 -5 -10 -2 -5 3 -10 14 -10 23 0
15 2 15 10 2 5 -8 10 -19 10 -23z m193 8 c-7 -21 -13 -19 -13 6 0 11 4 18 10
14 5 -3 7 -12 3 -20z m-409 -19 c-2 -6 5 -17 16 -24 19 -12 20 -11 15 15 -8
37 10 9 19 -30 6 -24 4 -28 -11 -25 -10 2 -18 9 -18 15 0 7 -10 19 -22 28 -14
10 -19 21 -16 36 4 14 8 17 13 8 5 -7 6 -17 4 -23z m186 -18 c0 -6 -7 -5 -15
2 -8 7 -15 17 -15 22 0 6 7 5 15 -2 8 -7 15 -17 15 -22z m-606 13 c3 -5 0 -11
-8 -14 -15 -6 -26 1 -26 15 0 11 27 10 34 -1z m361 -1 c3 -5 1 -10 -4 -10 -6
0 -11 5 -11 10 0 6 2 10 4 10 3 0 8 -4 11 -10z m5921 -25 c6 -16 -12 -45 -27
-45 -5 0 -9 14 -9 30 0 32 26 43 36 15z m-5936 -26 c0 -15 -18 -19 -23 -6 -3
8 1 14 9 14 8 0 14 -4 14 -8z m16 -17 c-17 -16 -18 -16 -5 5 7 12 15 20 18 17
3 -2 -3 -12 -13 -22z m6744 9 c0 -6 -4 -13 -10 -16 -5 -3 -10 1 -10 9 0 9 5
16 10 16 6 0 10 -4 10 -9z m-7647 -18 c-7 -2 -19 -2 -25 0 -7 3 -2 5 12 5 14
0 19 -2 13 -5z m138 -30 c-12 -20 -14 -14 -5 12 4 9 9 14 11 11 3 -2 0 -13 -6
-23z m394 9 c-3 -3 -11 0 -18 7 -9 10 -8 11 6 5 10 -3 15 -9 12 -12z m50 0
c-3 -3 -11 0 -18 7 -9 10 -8 11 6 5 10 -3 15 -9 12 -12z m355 -4 c0 -16 -3
-19 -11 -11 -6 6 -8 16 -5 22 11 17 16 13 16 -11z m44 -10 c3 -7 7 -32 10 -56
5 -33 4 -42 -6 -37 -7 4 -5 0 6 -9 10 -8 15 -20 10 -27 -4 -7 -3 -10 4 -5 6 3
16 -2 22 -13 7 -14 7 -22 -2 -27 -6 -4 -8 -3 -4 4 3 6 2 13 -4 17 -14 8 -13
-18 2 -50 8 -19 9 -28 0 -37 -6 -6 -9 -25 -7 -42 4 -22 1 -18 -10 14 -12 36
-14 38 -10 12 3 -20 1 -31 -5 -27 -11 7 -13 48 -3 59 4 3 8 23 9 42 1 20 -2
31 -6 24 -4 -7 -13 1 -24 23 -18 39 -21 61 -7 53 5 -3 11 1 15 9 3 8 1 15 -4
15 -6 0 -9 16 -7 35 2 34 14 47 21 23z m140 -21 c4 4 4 0 0 -10 -5 -13 -2 -16
12 -11 15 5 16 4 4 -4 -9 -7 -18 -8 -26 -1 -8 7 -15 6 -20 -2 -5 -8 -3 -9 6
-4 8 5 11 3 9 -4 -6 -18 -25 -9 -21 9 2 8 4 21 4 27 1 9 5 9 13 3 7 -5 15 -7
19 -3z m-1334 -1 c0 -2 -6 -9 -14 -15 -11 -9 -16 -9 -22 0 -4 7 -3 9 4 5 6 -3
13 -2 17 4 6 10 15 14 15 6z m1130 -7 c0 -5 -5 -7 -12 -3 -7 5 -8 3 -4 -5 5
-7 15 -10 25 -6 13 5 13 4 4 -6 -21 -21 -40 -19 -38 5 3 26 3 26 15 26 6 0 10
-5 10 -11z m-2553 -21 c-3 -8 -6 -5 -6 6 -1 11 2 17 5 13 3 -3 4 -12 1 -19z
m1731 2 c-7 -11 -15 -15 -17 -9 -2 6 3 15 10 20 20 12 21 11 7 -11z m936 5
c-4 -8 -8 -15 -10 -15 -2 0 -4 7 -4 15 0 8 4 15 10 15 5 0 7 -7 4 -15z m-168
-7 c4 -7 3 -8 -4 -4 -7 4 -12 0 -12 -10 0 -10 -3 -15 -6 -11 -7 6 2 37 10 37
3 0 8 -5 12 -12z m6868 -41 c8 -22 7 -30 -4 -37 -18 -11 -47 4 -55 30 -15 48
43 55 59 7z m1423 11 c-3 -8 -6 -5 -6 6 -1 11 2 17 5 13 3 -3 4 -12 1 -19z
m-10172 2 c-3 -5 -12 -10 -18 -10 -7 0 -6 4 3 10 19 12 23 12 15 0z m1875 -15
c-8 -9 -10 -27 -5 -51 5 -27 3 -35 -7 -32 -16 6 -12 75 5 93 17 18 23 9 7 -10z
m6790 5 c0 -11 -4 -20 -9 -20 -14 0 -23 18 -16 30 10 17 25 11 25 -10z m-6494
-13 c6 2 19 -8 28 -21 15 -24 15 -26 -4 -36 -11 -6 -20 -16 -19 -23 0 -9 2 -9
6 1 2 6 9 12 14 12 6 0 5 -9 -2 -21 -8 -15 -8 -19 0 -15 6 4 11 3 11 -3 0 -5
-4 -12 -9 -15 -12 -8 -44 42 -37 59 3 9 0 12 -8 9 -10 -4 -12 2 -9 20 3 15 1
26 -6 26 -5 0 -8 7 -4 16 5 15 8 15 17 2 6 -8 16 -13 22 -11z m-1236 -22 c0
-2 -10 -9 -22 -15 -22 -11 -22 -10 -4 4 21 17 26 19 26 11z m1357 -37 c-3 -7
-5 -2 -5 12 0 14 2 19 5 13 2 -7 2 -19 0 -25z m193 2 c0 -5 -2 -10 -4 -10 -3
0 -8 5 -11 10 -3 6 -1 10 4 10 6 0 11 -4 11 -10z m-252 -25 c14 -31 15 -52 3
-59 -5 -4 -7 4 -4 16 4 19 3 20 -6 8 -10 -13 -11 -13 -12 0 -1 8 -3 25 -4 38
-3 30 9 28 23 -3z m-1107 1 c5 3 9 1 9 -3 0 -5 -10 -14 -21 -22 -19 -11 -21
-11 -15 4 3 9 6 22 7 28 0 8 2 8 6 -1 2 -6 9 -10 14 -6z m841 -24 c-3 -9 -1
-13 4 -9 5 3 10 -3 10 -14 0 -10 -6 -19 -13 -19 -7 0 -10 7 -6 17 5 12 3 14
-7 8 -10 -6 -12 -4 -7 9 4 10 7 25 7 34 0 14 2 14 9 3 5 -8 7 -21 3 -29z m33
18 c3 -5 1 -10 -4 -10 -6 0 -11 5 -11 10 0 6 2 10 4 10 3 0 8 -4 11 -10z
m-132 -14 c4 -10 1 -13 -9 -9 -15 6 -19 23 -5 23 5 0 11 -7 14 -14z m312 -62
c15 -37 19 -51 10 -43 -8 9 -35 79 -30 79 2 0 12 -16 20 -36z m-29 1 c1 -8 -2
-13 -7 -9 -5 3 -9 12 -9 21 0 19 13 9 16 -12z m-4 -24 c9 5 32 -27 41 -56 7
-20 7 -20 -8 -1 -8 11 -15 24 -15 29 0 5 -7 6 -15 3 -11 -4 -19 3 -25 20 -14
36 -12 54 3 25 6 -13 15 -22 19 -20z m7953 29 c3 -5 1 -10 -4 -10 -6 0 -11 5
-11 10 0 6 2 10 4 10 3 0 8 -4 11 -10z m-8005 -43 c0 -5 -4 -5 -10 -2 -5 3
-10 14 -10 23 0 15 2 15 10 2 5 -8 10 -19 10 -23z m-210 13 c0 -5 -4 -10 -10
-10 -5 0 -10 5 -10 10 0 6 5 10 10 10 6 0 10 -4 10 -10z m585 0 c3 -6 -1 -7
-9 -4 -18 7 -21 14 -7 14 6 0 13 -4 16 -10z m7574 -7 c-35 -47 -89 -61 -89
-23 0 24 26 39 69 40 30 0 32 -2 20 -17z m-7825 -31 c3 -5 -1 -9 -9 -9 -8 0
-15 4 -15 9 0 4 4 8 9 8 6 0 12 -4 15 -8z m-84 -17 c7 -9 8 -15 2 -15 -5 0
-12 7 -16 15 -3 8 -4 15 -2 15 2 0 9 -7 16 -15z m-86 -35 c-6 -6 -10 -3 -10
10 0 13 4 16 10 10 7 -7 7 -13 0 -20z m76 -5 c0 -5 -5 -3 -10 5 -5 8 -10 20
-10 25 0 6 5 3 10 -5 5 -8 10 -19 10 -25z m380 -45 c0 -5 -4 -10 -10 -10 -5 0
-10 5 -10 10 0 6 5 10 10 10 6 0 10 -4 10 -10z m-290 -155 c0 -5 -5 -3 -10 5
-5 8 -10 20 -10 25 0 6 5 3 10 -5 5 -8 10 -19 10 -25z m81 -1 c5 -15 8 -29 5
-31 -2 -2 -8 10 -14 26 -13 38 -5 41 9 5z m6460 -100 c29 -35 -32 -71 -65 -39
-12 12 -13 21 -6 36 13 23 53 25 71 3z m199 -39 c0 -16 -27 -32 -37 -22 -3 4
-3 13 0 22 8 20 37 20 37 0z m-10357 -495 c4 -28 3 -37 -2 -25 -19 46 -31 93
-30 121 1 27 2 26 13 -11 7 -22 16 -60 19 -85z m10243 65 c8 -21 -14 -45 -42
-45 -31 0 -39 17 -18 41 20 23 52 25 60 4z m1734 -143 c26 -21 18 -55 -13 -50
-25 4 -42 30 -34 52 8 21 19 20 47 -2z m-7740 -27 c15 -8 30 -18 32 -22 4 -11
85 -63 98 -63 5 0 10 -4 10 -10 0 -5 5 -10 11 -10 6 0 27 -16 47 -35 20 -19
43 -35 51 -35 19 0 51 -30 51 -47 0 -8 4 -12 9 -9 5 3 22 -9 38 -28 17 -18 42
-36 56 -40 15 -3 27 -10 27 -14 0 -4 16 -25 35 -47 20 -21 33 -45 30 -53 -2
-7 -1 -11 4 -8 14 9 32 -20 25 -38 -4 -11 -2 -16 6 -14 7 2 14 -2 17 -8 2 -6
-7 -10 -19 -10 -18 1 -24 -5 -26 -25 -2 -14 4 -31 12 -39 20 -16 21 -56 1 -64
-9 -3 -20 -16 -25 -28 -7 -19 -9 -20 -9 -5 -1 11 8 31 19 47 11 15 17 30 14
32 -8 9 -84 -72 -84 -90 -1 -31 -29 -55 -70 -61 -52 -8 -52 -26 -1 -24 26 1
47 9 67 28 26 25 29 25 41 9 12 -17 13 -17 13 0 0 13 5 16 18 11 9 -4 27 -10
40 -13 12 -2 27 -12 32 -22 13 -24 -13 -46 -64 -55 -37 -7 -38 -7 -31 16 7 21
6 22 -9 7 -9 -9 -14 -22 -11 -30 4 -9 -8 -14 -42 -16 -56 -4 -72 -15 -53 -37
7 -8 9 -15 5 -15 -4 0 -15 10 -25 23 -15 17 -21 19 -31 10 -10 -10 -9 -14 4
-19 23 -8 21 -22 -5 -45 -28 -23 -47 -24 -54 -4 -4 10 -10 12 -18 6 -12 -9
-68 -23 -102 -25 -12 -1 -29 -9 -39 -19 -24 -24 -14 -32 11 -8 17 15 22 16 32
4 11 -11 10 -16 -2 -29 -17 -16 -21 -29 -8 -20 4 2 15 -2 25 -9 20 -14 16 -19
-26 -29 -16 -4 -38 -17 -50 -29 -12 -13 -67 -62 -122 -109 -55 -47 -118 -104
-140 -127 -21 -23 -42 -41 -47 -41 -7 0 -23 -13 -118 -100 -25 -23 -57 -44
-72 -47 -16 -3 -28 -9 -28 -14 0 -5 -7 -9 -16 -9 -8 0 -32 -11 -52 -25 -20
-14 -46 -25 -57 -25 -12 0 -30 -7 -41 -15 -10 -8 -22 -15 -26 -15 -16 0 -7 27
15 47 12 11 29 29 38 39 9 10 47 49 85 86 38 37 75 75 82 83 7 9 18 13 23 9 5
-3 9 -2 8 3 -4 25 5 48 45 108 28 41 43 72 39 82 -5 13 -2 15 11 10 10 -4 15
-3 11 3 -3 6 3 10 14 10 11 0 22 4 25 9 3 4 26 11 50 13 38 5 54 15 108 66 81
78 143 120 206 137 12 4 22 13 22 20 0 8 22 22 48 31 32 11 52 26 60 42 6 14
10 27 8 30 -6 5 -87 -49 -111 -75 -11 -12 -44 -29 -73 -37 -52 -15 -106 -48
-96 -59 10 -10 -44 -43 -117 -72 -41 -16 -77 -33 -80 -37 -3 -5 -16 -8 -30 -7
-49 3 -246 -61 -232 -75 4 -4 0 -4 -10 0 -10 3 -17 1 -17 -6 0 -6 -5 -8 -11
-5 -6 5 -4 11 7 19 15 11 13 13 -17 11 -19 -1 -45 5 -59 14 -29 19 -88 41
-112 41 -10 0 -27 9 -38 20 -11 11 -20 18 -20 15 0 -3 -10 3 -22 15 -12 11
-28 20 -35 20 -14 0 -22 24 -27 90 -1 25 -10 59 -19 77 -19 37 -21 47 -7 38 6
-3 10 0 10 7 1 8 8 4 19 -9 10 -12 21 -19 25 -16 3 4 6 1 6 -5 0 -26 59 -71
135 -104 71 -31 87 -34 144 -30 62 5 63 4 57 -19 -3 -13 -3 -18 0 -11 3 6 12
12 20 12 14 0 18 12 14 39 -1 10 9 12 47 8 45 -6 46 -5 13 5 -70 21 -184 60
-194 66 -6 3 -30 5 -53 3 -24 -1 -57 0 -74 4 -29 7 -29 8 -14 25 15 17 15 19
-15 25 -39 9 -52 38 -55 129 -2 40 -8 72 -15 76 -8 5 -10 18 -5 39 8 37 21 33
30 -9 5 -23 15 -32 48 -43 23 -8 41 -19 40 -23 -1 -5 26 -10 59 -11 35 -1 64
-6 68 -13 4 -7 36 -16 71 -20 35 -4 74 -11 87 -15 16 -5 22 -3 22 7 0 14 -144
68 -181 68 -24 0 -143 42 -156 56 -7 7 -13 19 -13 28 0 8 -4 17 -10 21 -19 12
-5 69 26 102 29 30 36 33 91 33 67 0 166 -16 201 -33 17 -8 25 -8 30 0 4 6 41
14 82 18 75 7 75 7 115 56 54 67 85 110 85 120 0 8 -76 3 -90 -6 -5 -3 -47 -8
-92 -10 -46 -3 -102 -10 -126 -16 -55 -15 -174 -6 -207 15 -17 11 -25 25 -25
46 0 35 19 48 84 53 25 2 54 12 64 21 10 9 22 13 26 9 4 -4 10 3 13 16 9 35
74 58 168 60 43 1 81 4 84 6 12 12 184 4 211 -10z m-4060 -136 c0 -5 -6 -9
-14 -9 -15 0 -28 24 -19 34 7 7 33 -13 33 -25z m510 -19 c0 -5 -18 -10 -40
-10 -22 0 -40 5 -40 10 0 6 18 10 40 10 22 0 40 -4 40 -10z m3390 -70 c0 -5
-4 -10 -10 -10 -5 0 -10 5 -10 10 0 6 5 10 10 10 6 0 10 -4 10 -10z m-3545
-36 c44 -8 125 -14 180 -13 100 2 155 -6 155 -22 0 -14 -71 -24 -165 -23 -138
1 -315 44 -315 76 0 7 12 8 33 3 17 -3 68 -13 112 -21z m3099 -19 c7 -19 -13
-19 -38 0 -19 14 -19 15 6 15 14 0 28 -7 32 -15z m-24 -26 c0 -7 -25 -7 -72 0
-15 2 -8 20 10 23 20 5 62 -11 62 -23z m8159 -6 c11 -23 10 -29 -5 -40 -31
-23 -104 -14 -104 13 0 22 42 54 70 54 19 0 30 -8 39 -27z m-1803 -128 c9 -36
-2 -57 -28 -53 -39 5 -38 78 1 78 14 0 23 -9 27 -25z m-5106 -167 c0 -10 -5
-18 -11 -18 -5 0 -7 -4 -4 -10 3 -5 1 -10 -4 -10 -6 0 -11 21 -11 47 0 43 1
45 15 27 8 -10 15 -27 15 -36z m5084 -8 c29 -11 36 -47 11 -56 -29 -12 -65 5
-65 30 0 37 11 43 54 26z m-5080 -90 l17 -35 -21 24 c-11 13 -20 30 -20 39 0
19 3 15 24 -28z m51 -68 c-3 -3 -11 0 -18 7 -9 10 -8 11 6 5 10 -3 15 -9 12
-12z m-1557 -56 c-5 -32 -23 -21 -25 15 -3 27 -1 30 13 19 8 -7 14 -23 12 -34z
m-2322 -54 c-4 -3 -14 2 -24 12 -16 18 -16 18 6 6 13 -6 21 -14 18 -18z
m10759 -71 c7 -13 -45 -52 -64 -49 -20 4 -27 38 -9 49 18 12 65 11 73 0z
m-2261 -124 c15 -11 17 -17 7 -35 -13 -24 -32 -28 -62 -12 -19 10 -26 40 -12
53 11 11 48 8 67 -6z m-8316 -42 c17 -4 32 -10 32 -15 0 -5 10 -10 23 -12 15
-2 23 -11 25 -29 3 -23 9 -28 44 -33 49 -8 111 -68 105 -102 -3 -16 2 -21 17
-21 48 -1 52 -2 36 -13 -10 -6 -11 -10 -2 -10 6 0 12 -6 12 -14 0 -18 -51 -27
-69 -13 -12 10 -12 9 -1 -9 11 -18 18 -20 43 -13 17 5 35 14 40 21 6 9 7 6 4
-9 -3 -13 -1 -23 4 -23 5 0 9 5 9 11 0 5 5 7 10 4 8 -5 8 -11 0 -20 -8 -9 -8
-15 0 -20 5 -3 10 -1 10 4 0 6 5 11 10 11 7 0 6 -8 -1 -22 -11 -20 -10 -21 3
-10 19 15 51 5 44 -14 -3 -8 -9 -20 -12 -28 -4 -11 5 -13 49 -10 44 3 61 -1
87 -19 36 -24 58 -53 48 -62 -4 -4 -34 -9 -68 -12 -47 -5 -64 -3 -71 8 -6 10
-9 11 -9 1 0 -7 10 -17 23 -22 21 -8 21 -9 -5 -9 -16 -1 -28 3 -28 8 0 5 -12
12 -27 16 -16 3 -50 20 -76 37 -39 25 -46 34 -42 52 4 13 3 16 -2 9 -13 -19
-74 32 -66 55 6 15 5 15 -10 3 -14 -11 -18 -11 -23 3 -3 9 -15 16 -25 16 -10
0 -19 5 -19 12 0 6 -3 8 -7 5 -3 -4 -28 13 -54 38 -61 57 -85 61 -59 10 10
-20 24 -42 30 -50 6 -8 9 -18 6 -23 -7 -12 30 -85 55 -107 10 -10 19 -22 19
-26 0 -8 29 -37 75 -76 8 -7 20 -13 26 -13 20 0 103 -51 129 -81 14 -15 45
-38 70 -52 40 -21 108 -63 164 -99 32 -21 86 -70 86 -77 0 -13 -74 -4 -115 14
-22 9 -58 19 -80 22 -22 3 -49 13 -60 22 -36 31 -75 52 -85 46 -6 -3 -34 10
-63 29 -29 20 -69 42 -88 50 -20 8 -41 22 -48 30 -7 8 -18 13 -26 10 -7 -3
-46 11 -86 31 -75 36 -131 87 -123 110 3 7 1 16 -4 19 -6 3 -12 -1 -15 -9 -10
-23 -57 -1 -113 54 -92 89 -133 136 -143 161 -8 21 -10 22 -11 5 -1 -20 -1
-20 -12 -1 -8 15 -8 21 0 24 7 2 12 8 12 14 0 6 -6 8 -14 5 -23 -9 -15 89 9
108 22 16 23 16 106 18 38 1 63 8 76 20 11 9 25 17 31 17 7 0 12 7 12 15 0 9
6 12 15 9 8 -4 15 -1 15 7 0 7 3 10 6 6 3 -3 22 1 42 8 21 7 44 12 52 10 8 -2
30 -6 48 -10z m2202 -9 c0 -2 -7 -7 -16 -10 -8 -3 -12 -2 -9 4 6 10 25 14 25
6z m66 -49 c1 -7 -8 -14 -20 -14 -19 -2 -20 -1 -4 11 10 7 16 16 13 19 -3 4
-2 5 2 2 4 -3 8 -11 9 -18z m1120 -102 c9 -38 34 -131 55 -205 22 -74 44 -169
49 -210 9 -67 21 -118 86 -353 22 -77 14 -92 -41 -82 -47 9 -218 25 -357 33
-116 8 -130 11 -154 33 -19 18 -38 24 -75 25 -100 3 -97 1 -109 42 -7 20 -42
94 -78 165 l-66 127 25 17 c55 39 112 100 135 144 15 30 44 63 80 91 31 24 76
59 100 79 23 20 64 45 91 55 47 17 65 28 168 99 61 42 68 38 91 -60z m-1128
57 c15 12 16 11 3 -4 -7 -10 -17 -18 -22 -18 -5 0 -9 8 -8 18 0 11 2 12 6 4 4
-10 8 -10 21 0z m-154 -167 c-4 -8 -8 -15 -10 -15 -2 0 -4 7 -4 15 0 8 4 15
10 15 5 0 7 -7 4 -15z m5751 4 c10 -16 -3 -56 -20 -63 -43 -16 -61 31 -23 58
26 19 35 20 43 5z m-5395 -188 c0 -16 -51 -50 -66 -44 -18 7 -18 9 8 33 22 21
58 27 58 11z m-470 -11 c0 -5 -5 -10 -11 -10 -5 0 -7 5 -4 10 3 6 8 10 11 10
2 0 4 -4 4 -10z m6000 -36 c0 -24 -19 -54 -34 -54 -26 0 -37 25 -20 48 18 25
54 30 54 6z m-8126 -109 c6 -8 46 -23 89 -34 43 -10 86 -25 96 -33 80 -59 99
-76 93 -83 -4 -4 0 -6 8 -3 8 2 24 -6 36 -19 12 -13 27 -23 33 -23 7 0 9 -4 6
-10 -3 -5 1 -10 10 -10 9 0 14 -4 11 -8 -8 -13 32 -72 49 -72 10 0 13 -5 9
-12 -5 -7 -2 -9 7 -6 14 6 110 -65 119 -87 7 -16 80 -85 90 -85 13 0 13 -27 0
-35 -9 -5 -43 9 -198 84 -41 20 -86 60 -96 86 -6 16 -9 17 -17 5 -8 -11 -12
-12 -16 -2 -2 6 -12 12 -20 12 -9 0 -14 3 -10 6 8 8 -9 24 -57 53 -21 13 -57
40 -81 60 -78 66 -86 72 -140 97 -52 25 -105 78 -105 106 0 38 59 46 84 13z
m86 -218 c21 -17 37 -36 36 -40 -2 -10 114 -127 126 -127 4 0 8 -4 8 -8 0 -5
11 -14 25 -20 14 -7 47 -32 74 -57 26 -25 52 -45 57 -46 5 0 22 -16 38 -35
l29 -36 -39 7 c-21 4 -43 12 -49 19 -5 6 -22 12 -37 14 -36 3 -108 45 -144 82
-16 17 -56 51 -89 76 -33 25 -59 47 -57 49 8 17 1 26 -13 15 -8 -6 -13 -21
-12 -33 1 -14 -5 -22 -18 -25 -16 -3 -18 -1 -8 9 17 17 -2 40 -25 32 -14 -6
-15 -4 -5 9 7 8 9 18 5 23 -4 4 3 3 15 -4 12 -6 24 -7 27 -2 6 9 -22 72 -35
81 -4 3 -4 12 1 20 6 8 10 20 10 25 0 6 -4 3 -10 -5 -5 -8 -12 -11 -15 -8 -4
4 -4 12 0 18 12 19 64 3 105 -33z m742 -85 c10 -16 15 -32 12 -35 -15 -15
-114 44 -114 68 0 38 75 15 102 -33z m-162 -259 c0 -10 -4 -24 -9 -32 -8 -12
-12 -12 -25 -2 -18 15 -11 38 12 44 10 3 18 5 20 6 1 0 2 -7 2 -16z m-15 -73
c-27 -12 -35 -12 -35 0 0 6 12 10 28 9 24 0 25 -1 7 -9z m-2 -27 c-7 -2 -19
-2 -25 0 -7 3 -2 5 12 5 14 0 19 -2 13 -5z m90 -230 c-6 -14 -33 -18 -33 -5 0
12 8 19 24 19 8 0 12 -6 9 -14z m-223 -88 c0 -8 -4 -15 -10 -15 -5 0 -10 7
-10 15 0 8 5 15 10 15 6 0 10 -7 10 -15z m70 -16 c-7 -11 -14 -18 -17 -15 -3
3 0 12 7 21 18 21 23 19 10 -6z m38 -75 c-3 -14 -7 -10 -16 16 -12 32 -11 34
4 19 9 -9 14 -25 12 -35z m32 24 c0 7 14 12 31 12 17 0 28 -4 24 -10 -3 -5 1
-10 9 -10 21 0 20 -17 -1 -29 -14 -8 -14 -10 -3 -11 9 0 10 -3 5 -9 -6 -6 -26
-6 -45 -2 -26 5 -35 12 -33 26 1 11 -3 28 -8 40 -10 20 -10 20 5 1 9 -11 16
-14 16 -8z m-403 -4 c10 -26 -14 -41 -35 -21 -15 16 -15 19 -2 27 21 14 30 12
37 -6z m333 -34 c0 -5 -5 -10 -11 -10 -5 0 -7 5 -4 10 3 6 8 10 11 10 2 0 4
-4 4 -10z m272 -62 c2 -17 9 -23 26 -22 18 0 22 -5 22 -28 l0 -29 -32 16 c-31
15 -32 15 -13 -1 19 -16 19 -16 -10 -9 -16 3 -30 7 -30 8 -1 1 -6 10 -13 19
-11 14 -10 21 3 42 21 32 43 33 47 4z m-162 -18 c12 -8 9 -10 -13 -10 -16 0
-26 4 -22 10 8 12 16 12 35 0z m349 -17 c-13 -15 -12 -15 9 -4 14 7 22 8 22 1
0 -5 7 -10 16 -10 12 0 14 -7 9 -32 -11 -53 -28 -98 -38 -98 -5 0 -7 6 -4 13
4 10 -2 13 -20 9 -31 -6 -80 43 -63 63 5 7 11 24 12 39 2 28 13 34 22 14 3 -9
8 -8 16 5 6 9 16 17 22 17 6 0 5 -7 -3 -17z m-559 -3 c0 -5 -5 -10 -11 -10 -5
0 -7 5 -4 10 3 6 8 10 11 10 2 0 4 -4 4 -10z m330 -54 c0 -5 -9 -1 -20 9 -11
10 -20 22 -20 26 0 5 9 1 20 -8 11 -10 20 -22 20 -27z m45 -16 c3 -5 2 -10 -4
-10 -5 0 -13 5 -16 10 -3 6 -2 10 4 10 5 0 13 -4 16 -10z m-248 -208 c9 -6 10
-17 2 -45 -9 -35 -29 -60 -29 -37 0 6 -4 9 -8 6 -5 -3 -10 15 -10 39 -2 37 1
45 15 45 10 0 24 -4 30 -8z m597 -41 c3 -5 -3 -11 -14 -14 -11 -3 -18 -1 -15
3 3 5 -1 11 -7 13 -7 3 -3 6 9 6 12 1 24 -3 27 -8z"/>
<path d="M7363 9483 c0 -45 11 -57 20 -23 8 30 8 30 0 29 -4 0 -10 8 -14 18
-3 11 -6 1 -6 -24z"/>
<path d="M7401 9515 c1 -19 18 -51 18 -35 0 8 -4 22 -9 30 -5 8 -9 11 -9 5z"/>
<path d="M7237 9443 c-2 -10 -8 -27 -13 -38 -7 -17 -6 -18 8 -7 9 7 18 24 21
37 5 28 -8 34 -16 8z"/>
<path d="M7466 9448 c3 -4 0 -17 -6 -28 -16 -30 -4 -24 20 9 20 29 20 30 1 28
-11 0 -17 -5 -15 -9z"/>
<path d="M6995 9440 c-3 -5 -1 -10 4 -10 6 0 11 5 11 10 0 6 -2 10 -4 10 -3 0
-8 -4 -11 -10z"/>
<path d="M7201 9424 c0 -11 3 -14 6 -6 3 7 2 16 -1 19 -3 4 -6 -2 -5 -13z"/>
<path d="M6947 9403 c-4 -3 -7 -11 -7 -17 0 -6 5 -5 12 2 6 6 9 14 7 17 -3 3
-9 2 -12 -2z"/>
<path d="M7647 9379 c4 -13 8 -18 11 -10 2 7 -1 18 -6 23 -8 8 -9 4 -5 -13z"/>
<path d="M7456 9364 c-9 -8 -16 -20 -16 -26 0 -6 1 -9 3 -7 1 2 11 14 21 27
22 25 16 30 -8 6z"/>
<path d="M6892 9350 c-10 -17 -10 -20 3 -20 8 0 15 9 15 20 0 11 -1 20 -3 20
-1 0 -8 -9 -15 -20z"/>
<path d="M7407 9363 c-4 -3 -7 -13 -7 -22 1 -13 3 -13 11 2 11 19 8 33 -4 20z"/>
<path d="M6815 9320 c-3 -5 -1 -10 4 -10 6 0 11 5 11 10 0 6 -2 10 -4 10 -3 0
-8 -4 -11 -10z"/>
<path d="M7512 9300 c0 -14 2 -19 5 -12 2 6 2 18 0 25 -3 6 -5 1 -5 -13z"/>
<path d="M7611 9273 c-1 -18 19 -67 25 -61 3 3 -2 21 -10 39 -8 19 -15 29 -15
22z"/>
<path d="M6605 9140 c3 -5 8 -10 11 -10 2 0 4 5 4 10 0 6 -5 10 -11 10 -5 0
-7 -4 -4 -10z"/>
<path d="M6547 8677 c-3 -8 -1 -20 4 -28 6 -10 9 -7 9 14 0 29 -5 35 -13 14z"/>
<path d="M6785 8540 c11 -5 58 -8 105 -8 82 1 83 1 30 8 -78 11 -161 11 -135
0z"/>
<path d="M7106 8465 c16 -22 24 -36 19 -33 -6 4 -17 2 -25 -4 -12 -8 -12 -9 3
-4 33 10 43 -35 24 -111 -9 -37 -14 -69 -12 -71 2 -3 7 9 11 24 3 16 13 34 21
41 8 6 15 28 15 47 0 23 5 36 13 36 7 0 19 7 26 17 13 15 11 16 -13 9 -17 -4
-28 -2 -28 4 0 16 133 12 156 -5 18 -13 18 -14 -5 -8 -23 6 -23 5 -8 -18 8
-13 18 -44 22 -68 7 -42 30 -80 41 -69 2 3 1 16 -4 29 -5 13 -7 38 -5 56 2 25
-1 31 -12 27 -24 -10 -17 12 9 30 14 8 27 25 31 36 9 29 60 52 130 60 l60 7
-58 2 c-59 1 -117 -17 -149 -46 -18 -16 -29 -16 -205 1 -13 2 -31 9 -40 18
-38 33 -45 30 -17 -7z"/>
<path d="M8217 8429 c-62 -62 -59 -61 41 7 62 43 71 54 42 54 -13 0 -46 -24
-83 -61z"/>
<path d="M6788 8473 c7 -3 16 -2 19 1 4 3 -2 6 -13 5 -11 0 -14 -3 -6 -6z"/>
<path d="M7441 8458 c-26 -14 -49 -44 -40 -53 3 -3 26 2 50 11 50 19 189 23
259 8 54 -12 86 -28 121 -61 21 -19 28 -21 32 -10 14 36 -93 95 -185 101 -31
2 -60 6 -65 9 -19 10 -150 7 -172 -5z"/>
<path d="M7022 8433 c27 -9 51 -13 55 -10 11 12 -1 17 -53 22 l-49 5 47 -17z"/>
<path d="M7850 8443 c0 -19 22 -63 32 -63 5 0 6 -4 3 -10 -3 -5 3 -10 15 -10
12 0 19 4 15 9 -3 5 2 16 10 24 20 21 20 22 -16 24 -17 1 -37 10 -45 20 -7 10
-14 13 -14 6z"/>
<path d="M6770 8420 c-8 -5 -12 -12 -9 -15 4 -3 12 1 19 10 14 17 11 19 -10 5z"/>
<path d="M6883 8422 c-13 -2 -23 -8 -23 -13 0 -6 9 -8 19 -4 15 4 20 0 23 -17
2 -15 10 -23 23 -23 16 0 20 6 18 28 -2 24 0 27 13 16 8 -6 17 -9 21 -5 8 8 3
12 -26 21 -22 7 -23 5 -19 -19 3 -14 1 -26 -3 -26 -5 0 -9 9 -9 19 0 24 -8 28
-37 23z"/>
<path d="M7550 8410 c0 -5 9 -10 19 -10 13 0 21 -8 23 -22 4 -29 34 -36 42
-10 5 13 14 18 31 16 36 -3 21 13 -23 26 -47 13 -92 13 -92 0z"/>
<path d="M6788 8384 c-36 -19 -39 -47 -4 -31 24 11 54 47 39 47 -5 -1 -20 -8
-35 -16z"/>
<path d="M7750 8396 c0 -2 8 -10 18 -17 15 -13 16 -12 3 4 -13 16 -21 21 -21
13z"/>
<path d="M7700 8376 c0 -9 43 -46 53 -46 5 0 4 7 -3 16 -14 16 -50 38 -50 30z"/>
<path d="M8078 8175 c-2 -41 0 -85 4 -97 3 -13 6 21 7 75 1 53 -1 97 -3 97 -3
0 -6 -34 -8 -75z"/>
<path d="M7871 8214 c0 -11 3 -14 6 -6 3 7 2 16 -1 19 -3 4 -6 -2 -5 -13z"/>
<path d="M7090 8210 c0 -7 -15 -31 -32 -53 -27 -34 -29 -39 -9 -25 30 21 63
75 51 83 -6 4 -10 1 -10 -5z"/>
<path d="M7881 8159 c-7 -22 -10 -43 -7 -46 2 -3 10 14 16 37 15 55 7 63 -9 9z"/>
<path d="M7852 8158 c-10 -30 -10 -31 3 -14 13 17 21 46 12 46 -1 0 -8 -15
-15 -32z"/>
<path d="M7800 8055 c-25 -14 -58 -25 -75 -25 -16 -1 -39 -6 -50 -11 -14 -6
-3 -8 35 -3 60 6 140 37 140 53 0 13 5 15 -50 -14z"/>
<path d="M8060 7990 c0 -5 5 -10 10 -10 6 0 10 5 10 10 0 6 -4 10 -10 10 -5 0
-10 -4 -10 -10z"/>
<path d="M7013 7906 c2 -6 15 -13 29 -17 15 -4 47 -21 71 -38 57 -39 108 -41
168 -6 31 18 59 25 96 25 28 0 54 4 57 9 3 5 -4 9 -17 9 -12 0 -34 4 -50 7
-19 5 -42 0 -81 -19 -77 -38 -105 -35 -179 18 -28 19 -99 28 -94 12z"/>
<path d="M8057 7913 c-2 -5 0 -21 4 -38 7 -29 7 -29 8 8 1 35 -3 46 -12 30z"/>
<path d="M8021 7794 c0 -11 3 -14 6 -6 3 7 2 16 -1 19 -3 4 -6 -2 -5 -13z"/>
<path d="M6964 7674 c46 -26 86 -35 86 -20 0 8 -13 16 -29 19 -16 3 -42 9 -57
12 l-29 6 29 -17z"/>
<path d="M7085 7640 c3 -5 14 -10 23 -10 15 0 15 2 2 10 -20 13 -33 13 -25 0z"/>
<path d="M7463 7643 c-29 -10 -12 -24 20 -17 17 4 38 7 45 7 6 0 12 3 12 7 0
7 -58 9 -77 3z"/>
<path d="M7170 7621 c15 -11 108 -16 98 -6 -3 3 -29 8 -59 11 -39 3 -50 2 -39
-5z"/>
<path d="M7191 7214 c0 -11 3 -14 6 -6 3 7 2 16 -1 19 -3 4 -6 -2 -5 -13z"/>
<path d="M7485 7189 c-4 -6 -5 -12 -2 -15 2 -3 7 2 10 11 7 17 1 20 -8 4z"/>
<path d="M7141 7174 c0 -11 3 -14 6 -6 3 7 2 16 -1 19 -3 4 -6 -2 -5 -13z"/>
<path d="M7110 7150 c0 -6 7 -10 15 -10 8 0 15 2 15 4 0 2 -7 6 -15 10 -8 3
-15 1 -15 -4z"/>
<path d="M7150 7137 c0 -10 -4 -15 -10 -12 -5 3 -10 1 -10 -4 0 -15 47 -14 56
1 4 6 3 8 -4 4 -6 -3 -15 2 -21 11 -10 17 -10 17 -11 0z"/>
<path d="M5335 8200 c-22 -11 -45 -19 -51 -20 -18 0 -94 -76 -94 -93 0 -21 33
-22 54 -2 8 8 22 15 31 15 8 0 18 7 21 15 4 10 20 15 48 15 31 0 37 3 26 11
-20 14 73 2 120 -15 19 -8 50 -12 68 -11 18 1 35 -2 38 -7 10 -15 23 -8 17 10
-5 14 -3 15 8 5 19 -18 34 -16 19 2 -7 9 -19 14 -25 11 -7 -2 -18 0 -26 5 -11
7 -11 9 -1 9 7 0 11 4 7 9 -3 5 -1 12 5 16 5 3 10 1 10 -4 0 -6 5 -11 11 -11
8 0 7 5 -1 15 -12 14 -15 14 -30 0 -14 -13 -19 -13 -36 0 -10 8 -14 15 -9 15
18 2 -29 19 -54 19 -20 1 -21 -1 -11 -14 11 -13 8 -14 -21 -9 -42 8 -50 14
-18 14 19 0 21 2 9 10 -24 15 -71 11 -115 -10z m226 -57 c13 -15 12 -15 -8 -4
-24 12 -29 21 -14 21 5 0 15 -7 22 -17z"/>
<path d="M5640 8161 c0 -5 5 -13 10 -16 6 -3 10 -2 10 4 0 5 -4 13 -10 16 -5
3 -10 2 -10 -4z"/>
<path d="M6137 8163 c-2 -1 -17 -3 -34 -5 -19 -1 -29 -7 -26 -14 2 -7 0 -15
-5 -18 -6 -3 -13 1 -16 10 -5 12 -10 14 -20 5 -7 -6 -16 -8 -19 -5 -3 4 -5 -3
-4 -15 l1 -22 19 23 18 23 -6 -23 c-5 -19 -2 -23 24 -28 17 -4 31 -11 31 -16
0 -10 45 -4 90 12 30 11 140 19 140 10 0 -3 15 -14 34 -24 19 -10 36 -27 39
-37 5 -17 47 -29 47 -13 0 40 -74 113 -119 117 -11 1 -23 7 -25 13 -3 8 -31
12 -85 11 -45 0 -83 -2 -84 -4z"/>
<path d="M5360 7995 c-25 -13 -53 -28 -62 -32 -30 -14 -4 -37 39 -35 21 1 50
-3 65 -9 14 -6 37 -9 50 -6 17 3 13 6 -19 12 -43 8 -53 21 -31 43 18 18 32 15
43 -10 15 -34 82 -38 107 -6 l17 23 43 -23 43 -23 -39 35 c-67 61 -175 74
-256 31z"/>
<path d="M6104 7969 c-3 -5 -14 -9 -25 -9 -10 0 -19 -4 -19 -10 0 -5 4 -10 10
-10 5 0 16 -13 25 -30 13 -26 21 -30 55 -30 29 0 42 5 50 20 13 25 32 25 54 1
13 -15 14 -20 4 -25 -7 -3 -1 -3 13 0 15 3 30 1 33 -5 10 -16 43 -13 50 4 3 8
1 15 -4 15 -5 0 -19 10 -32 23 -43 42 -197 83 -214 56z m46 -29 c0 -5 -2 -10
-4 -10 -3 0 -8 5 -11 10 -3 6 -1 10 4 10 6 0 11 -4 11 -10z"/>
<path d="M5610 7541 c0 -13 22 -28 55 -35 17 -4 50 -21 74 -37 54 -35 59 -35
121 -4 27 14 58 25 69 25 10 0 29 9 42 19 l24 20 -45 -6 c-25 -3 -69 -19 -99
-35 l-54 -30 -52 37 c-29 20 -65 37 -79 39 -14 1 -29 6 -33 9 -9 10 -23 9 -23
-2z"/>
<path d="M5261 7350 c0 -8 4 -24 9 -35 5 -13 9 -14 9 -5 0 8 -4 24 -9 35 -5
13 -9 14 -9 5z"/>
<path d="M5510 7345 l-45 -12 38 -18 c33 -15 40 -16 47 -4 7 10 32 14 94 14
95 0 99 7 12 24 -69 13 -85 13 -146 -4z"/>
<path d="M5970 7334 c-8 -2 -42 -6 -75 -11 l-60 -7 75 -7 c41 -4 91 -11 110
-16 28 -7 42 -5 68 10 18 11 32 21 30 22 -5 4 -132 12 -148 9z"/>
<path d="M5262 8828 c-6 -6 -12 -16 -12 -20 0 -14 27 -8 41 9 8 9 9 14 2 10
-6 -4 -13 -2 -15 3 -2 7 -8 6 -16 -2z"/>
<path d="M5186 8658 c3 -5 10 -6 15 -3 13 9 11 12 -6 12 -8 0 -12 -4 -9 -9z"/>
<path d="M10124 8518 c-5 -7 -7 -35 -4 -63 5 -46 6 -48 18 -28 22 39 9 124
-14 91z"/>
<path d="M3293 7145 c-21 -24 -15 -40 7 -20 20 18 26 35 13 35 -5 -1 -14 -7
-20 -15z"/>
<path d="M3805 5670 c-8 -13 3 -30 17 -30 6 0 20 -8 31 -17 20 -18 20 -18 2
14 -20 35 -41 48 -50 33z"/>
<path d="M3510 4915 c0 -16 17 -19 44 -9 22 9 10 24 -20 24 -15 0 -24 -6 -24
-15z"/>
<path d="M4739 4842 c-3 -20 -2 -29 4 -23 5 5 7 19 5 32 -3 20 -5 19 -9 -9z"/>
<path d="M14860 6441 c-11 -22 -13 -80 -4 -105 10 -26 49 -19 62 9 15 34 15
88 0 103 -18 18 -46 14 -58 -7z"/>
<path d="M14712 6434 c-14 -10 -22 -25 -22 -45 0 -26 3 -29 30 -29 40 0 40
-29 1 -51 l-29 -17 -6 31 c-9 46 -33 77 -60 77 -25 0 -36 -17 -36 -56 0 -21
-3 -23 -19 -14 -38 20 -68 12 -89 -24 -12 -21 -30 -36 -44 -38 -18 -2 -24 -10
-26 -35 -3 -26 -8 -33 -25 -33 -44 0 -55 -61 -19 -102 9 -11 29 -18 49 -18 29
0 33 3 34 28 1 21 3 22 6 6 4 -22 48 -48 64 -39 5 4 9 14 9 23 0 9 15 24 33
32 17 8 39 29 48 46 12 26 19 30 33 22 13 -7 22 -5 35 6 10 9 29 16 44 16 14
0 29 5 33 11 3 6 18 9 33 6 36 -8 51 4 53 39 1 49 -22 148 -40 162 -22 17 -63
15 -90 -4z m-176 -231 c-11 -11 -19 6 -11 24 8 17 8 17 12 0 3 -10 2 -21 -1
-24z m-102 -19 c3 -8 2 -12 -4 -9 -6 3 -10 10 -10 16 0 14 7 11 14 -7z"/>
<path d="M14974 6432 c-34 -23 -15 -82 28 -82 21 0 35 -27 21 -41 -6 -6 -21
-5 -40 2 -38 13 -68 0 -76 -31 -6 -25 23 -60 50 -60 27 0 106 -33 125 -52 25
-25 57 -23 67 4 7 19 8 19 14 4 4 -10 5 -21 2 -26 -3 -4 0 -22 6 -39 15 -43
46 -42 64 3 8 19 32 48 55 66 41 32 48 56 30 91 -14 26 -44 24 -63 -3 -16 -23
-16 -22 -16 18 -1 77 -51 99 -82 37 -42 -84 -63 -83 -54 3 7 59 5 67 -16 90
-17 18 -33 24 -63 24 -23 0 -46 -4 -52 -8z"/>
<path d="M15323 6181 c-47 -39 -17 -66 42 -39 33 15 36 58 3 58 -13 -1 -33 -9
-45 -19z"/>
<path d="M14523 6069 c-11 -11 -7 -38 6 -49 13 -11 28 -90 18 -90 -6 0 -8 -2
-5 -5 3 -3 16 -1 30 5 34 16 67 105 47 125 -20 18 -82 28 -96 14z"/>
<path d="M7327 5983 c-8 -13 5 -63 14 -57 12 7 12 51 0 59 -5 3 -12 2 -14 -2z"/>
<path d="M7390 5851 c0 -5 5 -13 10 -16 6 -3 10 -2 10 4 0 5 -4 13 -10 16 -5
3 -10 2 -10 -4z"/>
<path d="M7470 5736 c0 -2 8 -10 18 -17 15 -13 16 -12 3 4 -13 16 -21 21 -21
13z"/>
<path d="M7437 5556 c-3 -8 -2 -18 3 -21 13 -8 20 9 11 24 -6 10 -10 9 -14 -3z"/>
<path d="M6179 5418 c-5 -18 -6 -38 -1 -34 7 8 12 36 6 36 -2 0 -4 -1 -5 -2z"/>
<path d="M5708 5203 c7 -3 16 -2 19 1 4 3 -2 6 -13 5 -11 0 -14 -3 -6 -6z"/>
<path d="M5288 5133 c7 -3 16 -2 19 1 4 3 -2 6 -13 5 -11 0 -14 -3 -6 -6z"/>
<path d="M7375 5251 c-3 -5 -2 -12 3 -15 5 -3 9 1 9 9 0 17 -3 19 -12 6z"/>
<path d="M8487 3893 c-4 -3 -7 -11 -7 -17 0 -6 5 -5 12 2 6 6 9 14 7 17 -3 3
-9 2 -12 -2z"/>
<path d="M8039 3873 c-13 -15 -12 -15 9 -4 23 12 28 21 13 21 -5 0 -15 -7 -22
-17z"/>
<path d="M8625 3770 c3 -5 12 -7 20 -3 21 7 19 13 -6 13 -11 0 -18 -4 -14 -10z"/>
<path d="M8575 3760 c-3 -5 1 -10 9 -10 8 0 18 5 21 10 3 6 -1 10 -9 10 -8 0
-18 -4 -21 -10z"/>
<path d="M7614 3485 c-17 -13 -16 -14 14 -4 33 11 41 19 19 19 -7 0 -22 -7
-33 -15z"/>
<path d="M8350 3379 c0 -5 5 -7 10 -4 6 3 10 8 10 11 0 2 -4 4 -10 4 -5 0 -10
-5 -10 -11z"/>
<path d="M8600 3380 c0 -5 5 -10 10 -10 6 0 10 5 10 10 0 6 -4 10 -10 10 -5 0
-10 -4 -10 -10z"/>
<path d="M7505 3350 c3 -5 8 -10 11 -10 2 0 4 5 4 10 0 6 -5 10 -11 10 -5 0
-7 -4 -4 -10z"/>
</g>
</svg>
